#VRML V2.0 utf8
# 3D model generated by easyeda2kicad.py (https://github.com/uPesy/easyeda2kicad.py)

Shape{
    appearance Appearance {
        material  Material 	{
            diffuseColor 0.25098039215686274 0.25098039215686274 0.25098039215686274
            specularColor 0.12549019607843137 0.12549019607843137 0.12549019607843137
            ambientIntensity 0.251
            transparency 0.0
            shininess 0.5
        }
    }
    geometry IndexedFaceSet {
        ccw TRUE
        solid FALSE
        coord DEF co Coordinate {
            point [
                0.0638 0.5465 0.0079, 0.0638 0.4665 0.0079, 0.0408 0.4475 0.0079, 0.0638 0.4536 0.0079, 0.3292 0.6304 0.0079, 0.3333 0.6319 0.0079, 0.2222 0.5656 0.0079, 0.0408 0.5656 0.0079, -0.0197 0.5656 0.0079, -0.0341 0.7874 0.0079, 0.2222 0.4475 0.0079, 0.0991 0.4467 0.0079, 0.1618 0.4475 0.0079, 0.1057 0.4485 0.0079, 0.128 0.4566 0.0079, 0.0249 0.5008 0.0079, 0.0249 0.4604 0.0079, -0.0169 0.5008 0.0079, -0.0226 0.4604 0.0079, -0.0169 0.5137 0.0079, -0.0197 0.5526 0.0079, 0.0249 0.5137 0.0079, 0.0249 0.5526 0.0079, 0.0771 0.5522 0.0079, 0.0915 0.554 0.0079, 0.0973 0.5524 0.0079, -0.0341 0.4467 0.0079, -0.0226 0.4475 0.0079, 0.1365 0.4624 0.0079, 0.1416 0.4682 0.0079, 0.1618 0.4604 0.0079, 0.2064 0.5656 0.0079, 0.1402 0.6342 0.0079, 0.1433 0.6373 0.0079, 0.0784 0.4607 0.0079, 0.0941 0.459 0.0079, 0.2572 0.6319 0.0079, 0.2614 0.6304 0.0079, 0.142 0.5381 0.0079, 0.136 0.5481 0.0079, 0.1238 0.54 0.0079, 0.128 0.5351 0.0079, 0.1073 0.4621 0.0079, 0.1312 0.5289 0.0079, 0.1337 0.5197 0.0079, 0.1358 0.5053 0.0079, 0.1331 0.4909 0.0079, 0.1157 0.4651 0.0079, 0.248 0.6411 0.0079, 0.2504 0.6373 0.0079, 0.1471 0.6452 0.0079, 0.1457 0.6411 0.0079, 0.2535 0.6342 0.0079, 0.3425 0.6411 0.0079, 0.344 0.6452 0.0079, 0.5906 0.7874 0.0079, 0.3445 0.6496 0.0079, 0.3445 0.7874 0.0079, 0.13 0.554 0.0079, 0.1365 0.6319 0.0079, 0.0492 0.7874 0.0079, 0.0492 0.6496 0.0079, 0.0497 0.6452 0.0079, 0.0512 0.6411 0.0079, 0.1167 0.545 0.0079, 0.1289 0.4785 0.0079, 0.1249 0.4722 0.0079, 0.1212 0.4686 0.0079, 0.4374 0.5339 0.0079, 0.435 0.5302 0.0079, 0.5906 0.5413 0.0079, 0.4528 0.5413 0.0079, 0.4484 0.5408 0.0079, 0.4442 0.5394 0.0079, 0.4405 0.537 0.0079, 0.3371 0.6342 0.0079, 0.3402 0.6373 0.0079, 0.2657 0.6299 0.0079, 0.3248 0.6299 0.0079, 0.1456 0.4757 0.0079, 0.1489 0.4868 0.0079, 0.2064 0.4604 0.0079, 0.1517 0.5043 0.0079, 0.1489 0.5166 0.0079, 0.0638 0.5623 0.0079, 0.0775 0.5661 0.0079, 0.0916 0.567 0.0079, 0.0535 0.6373 0.0079, 0.1103 0.563 0.0079, 0.4336 0.526 0.0079, 0.4331 0.5217 0.0079, 0.4331 0.4626 0.0079, 0.1476 0.7874 0.0079, 0.2461 0.7874 0.0079, 0.1476 0.6496 0.0079, 0.2461 0.6496 0.0079, 0.2466 0.6452 0.0079, 0.0566 0.6342 0.0079, 0.1221 0.5588 0.0079, 0.0604 0.6319 0.0079, 0.0645 0.6304 0.0079, 0.0689 0.6299 0.0079, 0.128 0.6299 0.0079, 0.1323 0.6304 0.0079, 0.4336 0.4582 0.0079, 0.435 0.4541 0.0079, 0.4374 0.4503 0.0079, 0.2535 -0.6342 0.0079, 0.2504 -0.6373 0.0079, 0.158 -0.3292 0.0079, 0.1457 -0.6411 0.0079, 0.1433 -0.6373 0.0079, 0.1686 -0.1457 0.0079, 0.1728 -0.1471 0.0079, 0.1686 -0.248 0.0079, 0.1649 -0.2504 0.0079, 0.0963 0.446 0.0079, 0.1618 -0.2535 0.0079, 0.1594 -0.2572 0.0079, 0.158 -0.2614 0.0079, 0.1575 -0.2657 0.0079, 0.1575 -0.3248 0.0079, 0.1618 -0.3371 0.0079, 0.1649 -0.3402 0.0079, 0.2572 -0.6319 0.0079, 0.4484 -0.4434 0.0079, 0.4442 -0.4449 0.0079, 0.1772 -0.3445 0.0079, 0.0512 -0.6411 0.0079, 0.0497 -0.6452 0.0079, -0.0341 -0.7874 0.0079, 0.0492 -0.6496 0.0079, 0.0492 -0.7874 0.0079, 0.158 -0.0645 0.0079, 0.1575 -0.0689 0.0079, 0.1594 0.0604 0.0079, 0.1686 0.1457 0.0079, 0.1649 0.2504 0.0079, 0.1728 0.1471 0.0079, 0.1686 0.248 0.0079, 0.1649 0.1433 0.0079, 0.1618 0.1402 0.0079, 0.1594 0.1365 0.0079, 0.5906 -0.7874 0.0079, 0.3445 -0.7874 0.0079, 0.5906 -0.5413 0.0079, 0.3445 -0.6496 0.0079, 0.1594 -0.3333 0.0079, 0.1402 -0.6342 0.0079, 0.1365 -0.6319 0.0079, 0.0645 -0.6304 0.0079, 0.0604 -0.6319 0.0079, 0.0566 -0.6342 0.0079, 0.0535 -0.6373 0.0079, 0.158 0.1323 0.0079, 0.1575 0.128 0.0079, 0.1618 0.2535 0.0079, 0.2461 -0.6496 0.0079, 0.2461 -0.7874 0.0079, 0.1476 -0.7874 0.0079, 0.4528 -0.4429 0.0079, 0.5906 -0.3445 0.0079, 0.5906 -0.4429 0.0079, 0.344 -0.6452 0.0079, 0.3425 -0.6411 0.0079, 0.4528 -0.5413 0.0079, 0.4484 -0.5408 0.0079, 0.248 -0.6411 0.0079, 0.2466 -0.6452 0.0079, 0.1471 -0.6452 0.0079, 0.1476 -0.6496 0.0079, 0.5906 -0.1476 0.0079, 0.5906 -0.2461 0.0079, 0.1772 -0.1476 0.0079, 0.1772 -0.2461 0.0079, 0.1728 -0.2466 0.0079, 0.1772 0.2461 0.0079, 0.5906 0.2461 0.0079, 0.5906 0.1476 0.0079, 0.158 0.0645 0.0079, 0.1649 0.0535 0.0079, 0.1686 0.0512 0.0079, 0.1728 -0.0497 0.0079, 0.1728 0.2466 0.0079, 0.1772 0.1476 0.0079, 0.3292 -0.6304 0.0079, 0.435 -0.4541 0.0079, 0.3333 -0.6319 0.0079, 0.4336 -0.4582 0.0079, 0.3371 -0.6342 0.0079, 0.3402 -0.6373 0.0079, 0.0796 0.4477 0.0079, 0.0891 0.4467 0.0079, 0.0689 -0.6299 0.0079, 0.158 -0.1323 0.0079, 0.1594 -0.1365 0.0079, 0.1686 -0.0512 0.0079, 0.1649 -0.0535 0.0079, 0.4331 -0.4626 0.0079, 0.4331 -0.5217 0.0079, 0.4336 -0.526 0.0079, 0.435 -0.5302 0.0079, 0.4374 -0.5339 0.0079, 0.1686 0.3425 0.0079, 0.1649 0.3402 0.0079, 0.1618 0.3371 0.0079, 0.1618 -0.1402 0.0079, 0.1649 -0.1433 0.0079, 0.1618 0.0566 0.0079, 0.1618 -0.0566 0.0079, 0.1594 -0.0604 0.0079, 0.4405 -0.537 0.0079, 0.4442 -0.5394 0.0079, 0.128 -0.6299 0.0079, 0.1323 -0.6304 0.0079, 0.1575 0.0689 0.0079, 0.1772 0.0492 0.0079, 0.5906 0.0492 0.0079, 0.5906 -0.0492 0.0079, 0.5906 0.3445 0.0079, 0.1772 0.3445 0.0079, 0.1728 0.344 0.0079, 0.1594 0.3333 0.0079, 0.158 0.3292 0.0079, 0.1575 0.3248 0.0079, 0.1728 0.0497 0.0079, 0.1772 -0.0492 0.0079, 0.4405 -0.4472 0.0079, 0.4374 -0.4503 0.0079, 0.4405 0.4472 0.0079, 0.4412 0.4467 0.0079, 0.4442 0.4449 0.0079, 0.4484 0.4434 0.0079, 0.4528 0.4429 0.0079, 0.5906 0.4429 0.0079, 0.1686 -0.3425 0.0079, 0.1728 -0.344 0.0079, 0.2614 -0.6304 0.0079, 0.2657 -0.6299 0.0079, 0.3248 -0.6299 0.0079, 0.1575 -0.128 0.0079, 0.1575 0.2657 0.0079, 0.158 0.2614 0.0079, 0.1594 0.2572 0.0079, -0.0497 -0.6452 0.0079, -0.0512 -0.6411 0.0079, -0.0492 -0.6496 0.0079, -0.0535 -0.6373 0.0079, -0.0566 -0.6342 0.0079, -0.0604 -0.6319 0.0079, -0.0492 -0.7874 0.0079, -0.1323 -0.6304 0.0079, -0.1365 -0.6319 0.0079, -0.1772 -0.3445 0.0079, -0.1402 -0.6342 0.0079, -0.1433 -0.6373 0.0079, -0.1457 -0.6411 0.0079, -0.2504 -0.6373 0.0079, -0.1471 -0.6452 0.0079, -0.248 -0.6411 0.0079, -0.2535 -0.6342 0.0079, -0.2572 -0.6319 0.0079, -0.3445 -0.7874 0.0079, -0.5906 -0.7874 0.0079, -0.3445 -0.6496 0.0079, -0.5906 -0.5413 0.0079, -0.344 -0.6452 0.0079, -0.4528 -0.5413 0.0079, -0.4484 -0.5408 0.0079, -0.1686 0.248 0.0079, -0.1649 0.2504 0.0079, -0.1728 0.1471 0.0079, -0.1618 0.2535 0.0079, -0.1476 -0.7874 0.0079, -0.2461 -0.7874 0.0079, -0.1476 -0.6496 0.0079, -0.2461 -0.6496 0.0079, -0.2466 -0.6452 0.0079, -0.435 -0.4541 0.0079, -0.4374 -0.4503 0.0079, -0.4484 -0.4434 0.0079, -0.5906 -0.3445 0.0079, -0.4528 -0.4429 0.0079, -0.5906 -0.4429 0.0079, -0.4405 -0.537 0.0079, -0.4374 -0.5339 0.0079, -0.3402 -0.6373 0.0079, -0.0645 -0.6304 0.0079, -0.1618 -0.3371 0.0079, -0.1594 -0.3333 0.0079, -0.158 -0.3292 0.0079, -0.1594 -0.2572 0.0079, -0.1618 -0.2535 0.0079, -0.1649 -0.2504 0.0079, -0.1686 -0.248 0.0079, -0.4405 -0.4472 0.0079, -0.4442 -0.4449 0.0079, -0.4442 -0.5394 0.0079, -0.3425 -0.6411 0.0079, -0.5906 0.1476 0.0079, -0.5906 0.2461 0.0079, -0.1772 0.1476 0.0079, -0.1772 0.2461 0.0079, -0.1728 0.2466 0.0079, -0.2614 -0.6304 0.0079, -0.2657 -0.6299 0.0079, -0.3248 -0.6299 0.0079, -0.3292 -0.6304 0.0079, -0.4336 -0.4582 0.0079, -0.3333 -0.6319 0.0079, -0.128 -0.6299 0.0079, -0.1728 -0.344 0.0079, -0.0689 -0.6299 0.0079, -0.1686 -0.3425 0.0079, -0.1649 -0.3402 0.0079, -0.158 0.3292 0.0079, -0.1594 0.3333 0.0079, -0.1575 -0.3248 0.0079, -0.1575 -0.2657 0.0079, -0.158 -0.2614 0.0079, -0.1772 -0.2461 0.0079, -0.5906 -0.2461 0.0079, -0.5906 -0.1476 0.0079, -0.1594 -0.0604 0.0079, -0.1618 -0.0566 0.0079, -0.1594 0.0604 0.0079, -0.1649 -0.0535 0.0079, -0.1594 0.1365 0.0079, -0.1618 0.1402 0.0079, -0.4134 0.4429 0.0079, -0.1728 0.344 0.0079, -0.5906 0.4429 0.0079, -0.1772 0.3445 0.0079, -0.5906 0.3445 0.0079, -0.1575 0.3248 0.0079, -0.1618 0.3371 0.0079, -0.1649 0.3402 0.0079, -0.1686 0.3425 0.0079, -0.435 -0.5302 0.0079, -0.4336 -0.526 0.0079, -0.3371 -0.6342 0.0079, -0.4331 -0.5217 0.0079, -0.4331 -0.4626 0.0079, -0.1772 -0.1476 0.0079, -0.1728 -0.1471 0.0079, -0.1728 -0.2466 0.0079, -0.1686 -0.1457 0.0079, -0.1649 -0.1433 0.0079, -0.1618 -0.1402 0.0079, -0.409 0.4434 0.0079, -0.4048 0.4449 0.0079, -0.4019 0.4467 0.0079, -0.1772 -0.0492 0.0079, -0.5906 -0.0492 0.0079, -0.5906 0.0492 0.0079, -0.1772 0.0492 0.0079, -0.1728 0.0497 0.0079, -0.1728 -0.0497 0.0079, -0.1686 0.0512 0.0079, -0.1649 0.0535 0.0079, -0.1686 -0.0512 0.0079, -0.1618 0.0566 0.0079, -0.1575 0.0689 0.0079, -0.1575 0.128 0.0079, -0.158 0.1323 0.0079, -0.1649 0.1433 0.0079, -0.1686 0.1457 0.0079, -0.1594 0.2572 0.0079, -0.158 0.2614 0.0079, -0.1575 0.2657 0.0079, -0.1594 -0.1365 0.0079, -0.158 -0.1323 0.0079, -0.1575 -0.128 0.0079, -0.1575 -0.0689 0.0079, -0.158 0.0645 0.0079, -0.158 -0.0645 0.0079, -0.1667 0.4475 0.0079, -0.1494 0.4475 0.0079, -0.2267 0.4806 0.0079, -0.1779 0.4806 0.0079, -0.2387 0.4475 0.0079, -0.1297 0.4744 0.0079, -0.1233 0.4647 0.0079, -0.117 0.459 0.0079, -0.1088 0.4545 0.0079, -0.398 0.4503 0.0079, -0.3957 0.4541 0.0079, -0.256 0.4475 0.0079, -0.0968 0.4508 0.0079, -0.0778 0.4475 0.0079, -0.5906 0.5413 0.0079, -0.5906 0.7874 0.0079, -0.4331 0.5413 0.0079, -0.3445 0.7874 0.0079, -0.194 0.5656 0.0079, -0.1476 0.6496 0.0079, -0.1471 0.6452 0.0079, -0.2461 0.7874 0.0079, -0.1476 0.7874 0.0079, -0.2461 0.6496 0.0079, -0.4011 0.4472 0.0079, -0.1325 0.5374 0.0079, -0.1367 0.5261 0.0079, -0.1407 0.508 0.0079, -0.1374 0.4955 0.0079, -0.2099 0.5656 0.0079, -0.2572 0.6319 0.0079, -0.2535 0.6342 0.0079, -0.2504 0.6373 0.0079, -0.248 0.6411 0.0079, -0.2466 0.6452 0.0079, -0.0645 0.6304 0.0079, -0.0604 0.6319 0.0079, -0.0457 0.5656 0.0079, -0.0512 0.6411 0.0079, -0.0497 0.6452 0.0079, -0.0492 0.6496 0.0079, -0.3445 0.6496 0.0079, -0.344 0.6452 0.0079, -0.3425 0.6411 0.0079, -0.3402 0.6373 0.0079, -0.3371 0.6342 0.0079, -0.3937 0.502 0.0079, -0.3333 0.6319 0.0079, -0.3292 0.6304 0.0079, -0.0566 0.6342 0.0079, -0.0535 0.6373 0.0079, -0.0457 0.4475 0.0079, -0.0492 0.7874 0.0079, -0.3248 0.6299 0.0079, -0.2657 0.6299 0.0079, -0.2614 0.6304 0.0079, -0.1279 0.5451 0.0079, -0.122 0.5508 0.0079, -0.1457 0.6411 0.0079, -0.1125 0.5565 0.0079, -0.1433 0.6373 0.0079, -0.1402 0.6342 0.0079, -0.3937 0.4626 0.0079, -0.3942 0.4582 0.0079, -0.1365 0.6319 0.0079, -0.1323 0.6304 0.0079, -0.128 0.6299 0.0079, -0.0689 0.6299 0.0079, -0.079 0.5656 0.0079, -0.092 0.5629 0.0079, -0.456 0.5329 0.3622, -0.4728 0.5366 0.3622, -0.5906 -0.7874 0.3622, -0.4878 0.5441 0.3622, -0.5007 0.5553 0.3622, -0.4123 0.6581 0.3622, -0.3993 0.647 0.3622, 0.5906 0.7874 0.3622, -0.3895 0.6329 0.3622, -0.3835 0.6174 0.3622, -0.5162 0.6177 0.3622, -0.5101 0.6334 0.3622, -0.5906 0.7874 0.3622, -0.3815 0.601 0.3622, -0.3836 0.5844 0.3622, 0.5906 -0.7874 0.3622, -0.3896 0.5687 0.3622, -0.3996 0.5547 0.3622, -0.408 0.547 0.3622, -0.4226 0.5383 0.3622, -0.439 0.5335 0.3622, -0.5001 0.6474 0.3622, -0.4921 0.6547 0.3622, -0.4776 0.6635 0.3622, -0.4612 0.6684 0.3622, -0.4442 0.6691 0.3622, -0.4274 0.6656 0.3622, -0.5105 0.5694 0.3622, -0.5163 0.585 0.3622, -0.5183 0.601 0.3622, 0.5906 0.1476 0.0787, 0.5906 -0.5413 0.0787, 0.5906 -0.4429 0.0787, 0.5906 0.3445 0.0787, 0.5906 0.4429 0.0787, 0.5906 -0.3445 0.0787, 0.5906 -0.2461 0.0787, 0.5906 -0.1476 0.0787, 0.5906 -0.0492 0.0787, 0.5906 0.2461 0.0787, 0.5906 0.0492 0.0787, 0.5906 0.5413 0.0787, 0.0492 0.7874 0.0787, 0.3445 0.7874 0.0787, 0.2461 0.7874 0.0787, -0.1476 0.7874 0.0787, -0.2461 0.7874 0.0787, -0.0492 0.7874 0.0787, 0.1476 0.7874 0.0787, -0.3445 0.7874 0.0787, -0.5906 0.5413 0.0787, -0.5906 0.4429 0.0787, -0.5906 0.2461 0.0787, -0.5906 0.1476 0.0787, -0.5906 0.0492 0.0787, -0.5906 0.3445 0.0787, -0.5906 -0.1476 0.0787, -0.5906 -0.2461 0.0787, -0.5906 -0.3445 0.0787, -0.5906 -0.0492 0.0787, -0.5906 -0.5413 0.0787, -0.5906 -0.4429 0.0787, -0.3445 -0.7874 0.0787, -0.0492 -0.7874 0.0787, -0.2461 -0.7874 0.0787, -0.1476 -0.7874 0.0787, 0.0492 -0.7874 0.0787, 0.1476 -0.7874 0.0787, 0.3445 -0.7874 0.0787, 0.2461 -0.7874 0.0787
            ]
        }
        coordIndex [
            0,1,2,-1,2,1,3,-1,4,5,6,-1,7,8,9,-1,10,11,12,-1,12,11,13,-1,12,13,14,-1,15,16,17,-1,17,16,18,-1,17,18,19,-1,19,18,20,-1,19,20,21,-1,21,20,22,-1,23,24,25,-1,8,20,9,-1,9,20,18,-1,9,18,26,-1,26,18,27,-1,26,27,2,-1,14,28,12,-1,12,28,29,-1,12,29,30,-1,31,32,33,-1,0,23,1,-1,1,23,25,-1,1,25,34,-1,34,25,35,-1,6,36,37,-1,38,39,31,-1,40,41,42,-1,42,41,43,-1,42,43,44,-1,44,45,42,-1,42,45,46,-1,42,46,47,-1,48,49,50,-1,50,49,51,-1,36,6,52,-1,52,6,31,-1,52,31,49,-1,49,31,33,-1,49,33,51,-1,53,54,55,-1,55,54,56,-1,55,56,57,-1,31,39,32,-1,32,39,58,-1,32,58,59,-1,60,61,9,-1,9,61,62,-1,9,62,63,-1,35,25,42,-1,42,25,64,-1,42,64,40,-1,65,66,46,-1,46,66,67,-1,46,67,47,-1,10,68,69,-1,55,70,71,-1,71,72,55,-1,55,72,73,-1,55,73,10,-1,10,73,74,-1,10,74,68,-1,6,5,10,-1,10,5,75,-1,10,75,55,-1,55,75,76,-1,55,76,53,-1,37,77,6,-1,6,77,78,-1,6,78,4,-1,29,79,30,-1,30,79,80,-1,30,80,81,-1,81,80,82,-1,81,82,31,-1,31,82,83,-1,31,83,38,-1,2,7,0,-1,0,7,9,-1,0,9,84,-1,84,9,63,-1,84,63,85,-1,85,63,86,-1,86,63,87,-1,86,87,88,-1,69,89,10,-1,10,89,90,-1,10,90,91,-1,92,93,94,-1,94,93,95,-1,94,95,50,-1,50,95,96,-1,50,96,48,-1,97,58,87,-1,87,58,98,-1,87,98,88,-1,97,99,58,-1,58,99,100,-1,58,100,101,-1,101,102,58,-1,58,102,103,-1,58,103,59,-1,91,104,10,-1,10,104,105,-1,10,105,106,-1,107,108,109,-1,110,111,108,-1,112,113,114,-1,114,115,116,-1,116,115,117,-1,116,117,118,-1,118,119,116,-1,116,119,120,-1,116,120,121,-1,122,123,124,-1,125,126,127,-1,128,129,130,-1,130,129,131,-1,130,131,132,-1,133,134,135,-1,136,137,138,-1,138,137,139,-1,136,140,137,-1,137,140,141,-1,137,141,142,-1,143,144,145,-1,145,144,146,-1,107,109,124,-1,124,109,147,-1,124,147,122,-1,108,111,109,-1,109,111,148,-1,109,148,149,-1,150,151,26,-1,26,151,152,-1,26,152,153,-1,142,154,137,-1,137,154,155,-1,137,155,156,-1,157,158,159,-1,125,127,160,-1,160,127,161,-1,160,161,162,-1,146,163,145,-1,145,163,164,-1,145,164,165,-1,165,164,166,-1,108,167,110,-1,110,167,168,-1,110,168,169,-1,169,168,157,-1,169,157,170,-1,170,157,159,-1,171,172,173,-1,173,172,174,-1,173,174,113,-1,113,174,175,-1,113,175,114,-1,176,177,178,-1,135,134,179,-1,180,181,182,-1,139,183,138,-1,138,183,176,-1,138,176,184,-1,184,176,178,-1,185,186,187,-1,187,186,188,-1,187,188,189,-1,189,188,190,-1,3,191,2,-1,2,191,192,-1,2,192,26,-1,26,192,193,-1,26,193,150,-1,114,194,195,-1,135,196,197,-1,190,188,164,-1,164,188,198,-1,164,198,199,-1,199,200,164,-1,164,200,201,-1,164,201,202,-1,203,204,116,-1,116,204,205,-1,195,206,114,-1,114,206,207,-1,114,207,112,-1,196,135,182,-1,182,135,208,-1,182,208,180,-1,197,209,135,-1,135,209,210,-1,135,210,133,-1,202,211,164,-1,164,211,212,-1,164,212,166,-1,192,116,193,-1,193,116,121,-1,193,121,213,-1,213,121,109,-1,213,109,214,-1,214,109,149,-1,155,215,116,-1,216,217,218,-1,219,220,116,-1,116,220,221,-1,116,221,203,-1,205,222,116,-1,116,222,223,-1,116,223,224,-1,181,225,182,-1,182,225,216,-1,182,216,226,-1,226,216,218,-1,126,227,127,-1,127,227,228,-1,127,228,186,-1,106,229,10,-1,10,229,230,-1,10,230,11,-1,11,230,231,-1,11,231,116,-1,116,231,232,-1,116,232,219,-1,219,232,233,-1,219,233,234,-1,123,235,124,-1,124,235,236,-1,124,236,237,-1,237,236,127,-1,237,127,238,-1,238,127,186,-1,238,186,239,-1,239,186,185,-1,194,114,240,-1,240,114,116,-1,240,116,134,-1,134,116,215,-1,134,215,179,-1,224,241,116,-1,116,241,242,-1,116,242,155,-1,155,242,243,-1,155,243,156,-1,244,245,26,-1,244,26,246,-1,245,247,26,-1,26,247,248,-1,26,248,249,-1,153,128,26,-1,26,128,130,-1,26,130,246,-1,246,130,250,-1,251,252,253,-1,253,252,254,-1,253,254,255,-1,255,256,257,-1,257,256,258,-1,257,258,259,-1,255,257,253,-1,253,257,260,-1,253,260,261,-1,262,263,264,-1,264,263,265,-1,264,265,266,-1,266,265,267,-1,266,267,268,-1,269,270,271,-1,271,270,272,-1,273,274,275,-1,275,274,276,-1,275,276,258,-1,258,276,277,-1,258,277,259,-1,253,278,279,-1,253,280,281,-1,281,280,282,-1,281,282,283,-1,284,285,286,-1,287,288,249,-1,249,288,289,-1,249,289,290,-1,291,292,26,-1,26,292,293,-1,26,293,294,-1,279,295,253,-1,253,295,296,-1,253,296,280,-1,268,297,266,-1,266,297,284,-1,266,284,298,-1,298,284,286,-1,299,300,301,-1,301,300,302,-1,301,302,271,-1,271,302,303,-1,271,303,269,-1,261,304,253,-1,253,304,305,-1,253,305,278,-1,305,306,278,-1,278,306,307,-1,278,307,308,-1,308,307,309,-1,251,253,310,-1,310,253,311,-1,310,311,312,-1,312,311,313,-1,312,313,287,-1,287,313,314,-1,287,314,288,-1,315,316,26,-1,290,317,249,-1,249,317,318,-1,249,318,26,-1,26,318,319,-1,26,319,291,-1,320,321,322,-1,323,324,325,-1,325,324,326,-1,26,327,328,-1,329,330,331,-1,331,330,332,-1,331,332,333,-1,315,26,334,-1,316,335,26,-1,26,335,336,-1,26,336,337,-1,285,338,286,-1,286,338,339,-1,286,339,340,-1,340,339,341,-1,340,341,309,-1,309,341,342,-1,309,342,308,-1,322,343,320,-1,320,343,344,-1,320,344,345,-1,345,344,346,-1,345,346,294,-1,294,346,347,-1,294,347,348,-1,329,349,330,-1,330,349,350,-1,330,350,337,-1,337,350,351,-1,337,351,26,-1,352,353,354,-1,354,355,352,-1,352,355,356,-1,352,356,357,-1,357,356,358,-1,357,358,359,-1,326,360,325,-1,325,360,357,-1,325,357,361,-1,361,357,359,-1,362,363,26,-1,26,363,364,-1,26,364,327,-1,328,365,26,-1,26,365,366,-1,26,366,271,-1,272,367,271,-1,271,367,368,-1,271,368,26,-1,26,368,369,-1,26,369,334,-1,348,370,294,-1,294,370,371,-1,294,371,26,-1,26,371,372,-1,26,372,373,-1,362,26,374,-1,374,26,373,-1,374,373,325,-1,325,373,375,-1,325,375,323,-1,376,377,26,-1,378,379,380,-1,380,379,376,-1,381,382,377,-1,377,382,383,-1,377,383,384,-1,385,386,387,-1,384,388,377,-1,377,388,389,-1,377,389,26,-1,390,391,392,-1,392,391,393,-1,394,395,396,-1,397,398,399,-1,399,398,395,-1,376,26,380,-1,380,26,351,-1,380,351,387,-1,387,351,400,-1,387,400,385,-1,401,402,394,-1,394,402,403,-1,394,403,377,-1,377,403,404,-1,377,404,381,-1,405,406,394,-1,394,406,407,-1,407,408,394,-1,394,408,409,-1,394,409,395,-1,395,409,410,-1,395,410,399,-1,411,412,413,-1,414,415,413,-1,413,415,416,-1,393,417,392,-1,392,417,418,-1,392,418,419,-1,419,420,392,-1,392,420,421,-1,392,421,422,-1,422,421,423,-1,422,423,424,-1,412,425,413,-1,413,425,426,-1,413,426,414,-1,389,427,26,-1,26,427,413,-1,26,413,9,-1,9,413,416,-1,9,416,428,-1,429,430,405,-1,405,430,431,-1,405,431,406,-1,401,394,432,-1,432,394,396,-1,432,396,433,-1,433,396,434,-1,433,434,435,-1,435,434,436,-1,435,436,437,-1,424,429,422,-1,422,429,405,-1,422,405,438,-1,438,405,387,-1,438,387,439,-1,439,387,386,-1,437,440,435,-1,435,440,441,-1,435,441,442,-1,411,413,443,-1,443,413,444,-1,443,444,442,-1,442,444,445,-1,442,445,435,-1,446,447,448,-1,448,447,449,-1,448,449,450,-1,451,452,453,-1,453,452,454,-1,453,454,455,-1,456,457,458,-1,455,459,453,-1,453,459,460,-1,453,460,461,-1,461,460,462,-1,461,462,463,-1,463,464,461,-1,461,464,465,-1,461,465,448,-1,448,465,466,-1,448,466,446,-1,457,467,458,-1,458,467,468,-1,458,468,469,-1,469,470,458,-1,458,470,471,-1,458,471,453,-1,453,471,472,-1,453,472,451,-1,450,473,448,-1,448,473,474,-1,448,474,458,-1,458,474,475,-1,458,475,456,-1,476,178,177,-1,143,145,461,-1,461,145,477,-1,461,477,478,-1,219,234,479,-1,479,234,480,-1,162,161,478,-1,478,161,481,-1,478,481,461,-1,461,481,482,-1,172,171,482,-1,482,171,483,-1,482,483,461,-1,461,483,484,-1,177,485,476,-1,476,485,461,-1,476,461,486,-1,486,461,484,-1,486,484,217,-1,217,484,218,-1,70,55,487,-1,487,55,453,-1,487,453,480,-1,480,453,461,-1,480,461,479,-1,479,461,485,-1,488,60,428,-1,55,57,453,-1,453,57,489,-1,453,489,490,-1,398,397,491,-1,491,397,492,-1,428,493,488,-1,488,493,453,-1,488,453,494,-1,494,453,490,-1,494,490,92,-1,92,490,93,-1,393,391,495,-1,495,391,458,-1,495,458,492,-1,492,458,453,-1,492,453,491,-1,491,453,493,-1,458,391,390,-1,390,496,458,-1,458,496,497,-1,458,497,448,-1,498,300,299,-1,499,500,448,-1,299,499,498,-1,498,499,448,-1,498,448,501,-1,501,448,497,-1,501,497,333,-1,333,497,331,-1,502,322,321,-1,503,504,448,-1,321,503,502,-1,502,503,448,-1,502,448,505,-1,505,448,500,-1,505,500,353,-1,353,500,354,-1,265,263,506,-1,506,263,448,-1,506,448,507,-1,507,448,504,-1,507,504,283,-1,283,504,281,-1,263,262,448,-1,448,262,508,-1,509,250,132,-1,274,273,510,-1,510,273,511,-1,512,513,461,-1,132,512,509,-1,509,512,461,-1,509,461,511,-1,511,461,448,-1,511,448,510,-1,510,448,508,-1,144,143,514,-1,514,143,461,-1,514,461,515,-1,515,461,513,-1,515,513,158,-1,158,513,159,-1,
        ]
    }
}
Shape{
    appearance Appearance {
        material  Material 	{
            diffuseColor 0.5019607843137255 0.5019607843137255 0.5019607843137255
            specularColor 0.25098039215686274 0.25098039215686274 0.25098039215686274
            ambientIntensity 0.502
            transparency 0.0
            shininess 0.5
        }
    }
    geometry IndexedFaceSet {
        ccw TRUE
        solid FALSE
        coord DEF co Coordinate {
            point [
                -0.3836 0.5844 0.3583, -0.3815 0.601 0.3622, -0.3815 0.601 0.3583, -0.3835 0.6174 0.3622, -0.3835 0.6174 0.3583, -0.3895 0.6329 0.3622, -0.3895 0.6329 0.3583, -0.3993 0.647 0.3622, -0.3993 0.647 0.3583, -0.4123 0.6581 0.3622, -0.4123 0.6581 0.3583, -0.4274 0.6656 0.3622, -0.4274 0.6656 0.3583, -0.4442 0.6691 0.3622, -0.4442 0.6691 0.3583, -0.4612 0.6684 0.3622, -0.4612 0.6684 0.3583, -0.4776 0.6635 0.3622, -0.4776 0.6635 0.3583, -0.4921 0.6547 0.3622, -0.4921 0.6547 0.3583, -0.5001 0.6474 0.3622, -0.5001 0.6474 0.3583, -0.5101 0.6334 0.3622, -0.5101 0.6334 0.3583, -0.5162 0.6177 0.3622, -0.5162 0.6177 0.3583, -0.5183 0.601 0.3622, -0.5183 0.601 0.3583, -0.5163 0.585 0.3622, -0.5163 0.585 0.3583, -0.5105 0.5694 0.3622, -0.5105 0.5694 0.3583, -0.5007 0.5553 0.3622, -0.5007 0.5553 0.3583, -0.4878 0.5441 0.3622, -0.4878 0.5441 0.3583, -0.4728 0.5366 0.3622, -0.4728 0.5366 0.3583, -0.456 0.5329 0.3622, -0.456 0.5329 0.3583, -0.439 0.5335 0.3622, -0.439 0.5335 0.3583, -0.4226 0.5383 0.3622, -0.4226 0.5383 0.3583, -0.408 0.547 0.3622, -0.408 0.547 0.3583, -0.3996 0.5547 0.3622, -0.3996 0.5547 0.3583, -0.3896 0.5687 0.3622, -0.3896 0.5687 0.3583, -0.3836 0.5844 0.3622
            ]
        }
        coordIndex [
            0,1,2,-1,2,1,3,-1,2,3,4,-1,4,3,5,-1,4,5,6,-1,6,5,7,-1,6,7,8,-1,8,7,9,-1,8,9,10,-1,10,9,11,-1,10,11,12,-1,12,11,13,-1,12,13,14,-1,14,13,15,-1,14,15,16,-1,16,15,17,-1,16,17,18,-1,18,17,19,-1,18,19,20,-1,20,19,21,-1,20,21,22,-1,22,21,23,-1,22,23,24,-1,24,23,25,-1,24,25,26,-1,26,25,27,-1,26,27,28,-1,28,27,29,-1,28,29,30,-1,30,29,31,-1,30,31,32,-1,32,31,33,-1,32,33,34,-1,34,33,35,-1,34,35,36,-1,36,35,37,-1,36,37,38,-1,38,37,39,-1,38,39,40,-1,40,39,41,-1,40,41,42,-1,42,41,43,-1,42,43,44,-1,44,43,45,-1,44,45,46,-1,46,45,47,-1,46,47,48,-1,48,47,49,-1,48,49,50,-1,50,49,51,-1,50,51,0,-1,0,51,1,-1,24,26,46,-1,0,20,50,-1,50,20,48,-1,0,2,20,-1,20,2,4,-1,20,4,6,-1,48,20,46,-1,46,20,22,-1,46,22,24,-1,26,28,46,-1,46,28,30,-1,46,30,32,-1,6,8,20,-1,20,8,10,-1,20,10,12,-1,12,14,20,-1,20,14,16,-1,20,16,18,-1,32,34,46,-1,46,34,36,-1,46,36,38,-1,38,40,46,-1,46,40,42,-1,46,42,44,-1,
        ]
    }
}
Shape{
    appearance Appearance {
        material  Material 	{
            diffuseColor 0.7529411764705882 0.7529411764705882 0.7529411764705882
            specularColor 0.3764705882352941 0.3764705882352941 0.3764705882352941
            ambientIntensity 0.7529
            transparency 0.0
            shininess 0.5
        }
    }
    geometry IndexedFaceSet {
        ccw TRUE
        solid FALSE
        coord DEF co Coordinate {
            point [
                0.1476 0.7913 0.0787, 0.0492 0.7913 0.0787, 0.1476 0.7874 0.0787, 0.0492 0.7874 0.0787, 0.0492 0.7874 0.0079, 0.0492 0.7913 0.0, 0.0492 0.6496 0.0079, 0.0492 0.6496 0.0, 0.0497 0.6452 0.0, 0.0497 0.6452 0.0079, 0.0512 0.6411 0.0, 0.0512 0.6411 0.0079, 0.0535 0.6373 0.0, 0.0535 0.6373 0.0079, 0.0566 0.6342 0.0, 0.0566 0.6342 0.0079, 0.0604 0.6319 0.0, 0.0604 0.6319 0.0079, 0.0645 0.6304 0.0, 0.0645 0.6304 0.0079, 0.0689 0.6299 0.0, 0.0689 0.6299 0.0079, 0.128 0.6299 0.0, 0.128 0.6299 0.0079, 0.1323 0.6304 0.0, 0.1323 0.6304 0.0079, 0.1365 0.6319 0.0, 0.1365 0.6319 0.0079, 0.1402 0.6342 0.0, 0.1402 0.6342 0.0079, 0.1433 0.6373 0.0, 0.1433 0.6373 0.0079, 0.1457 0.6411 0.0, 0.1457 0.6411 0.0079, 0.1471 0.6452 0.0, 0.1471 0.6452 0.0079, 0.1476 0.6496 0.0, 0.1476 0.6496 0.0079, 0.1476 0.7874 0.0079, 0.1476 0.7913 0.0, -0.0492 0.7913 0.0787, -0.1476 0.7913 0.0787, -0.0492 0.7874 0.0787, -0.1476 0.7874 0.0787, -0.1476 0.7874 0.0079, -0.1476 0.7913 0.0, -0.1476 0.6496 0.0079, -0.1476 0.6496 0.0, -0.1471 0.6452 0.0, -0.1471 0.6452 0.0079, -0.1457 0.6411 0.0, -0.1457 0.6411 0.0079, -0.1433 0.6373 0.0, -0.1433 0.6373 0.0079, -0.1402 0.6342 0.0, -0.1402 0.6342 0.0079, -0.1365 0.6319 0.0, -0.1365 0.6319 0.0079, -0.1323 0.6304 0.0, -0.1323 0.6304 0.0079, -0.128 0.6299 0.0, -0.128 0.6299 0.0079, -0.0689 0.6299 0.0, -0.0689 0.6299 0.0079, -0.0645 0.6304 0.0, -0.0645 0.6304 0.0079, -0.0604 0.6319 0.0, -0.0604 0.6319 0.0079, -0.0566 0.6342 0.0, -0.0566 0.6342 0.0079, -0.0535 0.6373 0.0, -0.0535 0.6373 0.0079, -0.0512 0.6411 0.0, -0.0512 0.6411 0.0079, -0.0497 0.6452 0.0, -0.0497 0.6452 0.0079, -0.0492 0.6496 0.0, -0.0492 0.6496 0.0079, -0.0492 0.7874 0.0079, -0.0492 0.7913 0.0, 0.3445 0.7874 0.0787, 0.3445 0.7913 0.0787, 0.2461 0.7874 0.0787, 0.2461 0.7913 0.0787, 0.2461 0.7874 0.0079, 0.2461 0.7913 0.0, 0.2461 0.6496 0.0079, 0.2461 0.6496 0.0, 0.2466 0.6452 0.0, 0.2466 0.6452 0.0079, 0.248 0.6411 0.0, 0.248 0.6411 0.0079, 0.2504 0.6373 0.0, 0.2504 0.6373 0.0079, 0.2535 0.6342 0.0, 0.2535 0.6342 0.0079, 0.2572 0.6319 0.0, 0.2572 0.6319 0.0079, 0.2614 0.6304 0.0, 0.2614 0.6304 0.0079, 0.2657 0.6299 0.0, 0.2657 0.6299 0.0079, 0.3248 0.6299 0.0, 0.3248 0.6299 0.0079, 0.3292 0.6304 0.0, 0.3292 0.6304 0.0079, 0.3333 0.6319 0.0, 0.3333 0.6319 0.0079, 0.3371 0.6342 0.0, 0.3371 0.6342 0.0079, 0.3402 0.6373 0.0, 0.3402 0.6373 0.0079, 0.3425 0.6411 0.0, 0.3425 0.6411 0.0079, 0.344 0.6452 0.0, 0.344 0.6452 0.0079, 0.3445 0.6496 0.0, 0.3445 0.6496 0.0079, 0.3445 0.7874 0.0079, 0.3445 0.7913 0.0, -0.2461 0.7874 0.0787, -0.2461 0.7913 0.0787, -0.3445 0.7874 0.0787, -0.3445 0.7913 0.0787, -0.3445 0.6496 0.0079, -0.3445 0.6496 0.0, -0.344 0.6452 0.0, -0.344 0.6452 0.0079, -0.3425 0.6411 0.0, -0.3425 0.6411 0.0079, -0.3402 0.6373 0.0, -0.3402 0.6373 0.0079, -0.3371 0.6342 0.0, -0.3371 0.6342 0.0079, -0.3333 0.6319 0.0, -0.3333 0.6319 0.0079, -0.3292 0.6304 0.0, -0.3292 0.6304 0.0079, -0.3248 0.6299 0.0, -0.3248 0.6299 0.0079, -0.2657 0.6299 0.0, -0.2657 0.6299 0.0079, -0.2614 0.6304 0.0, -0.2614 0.6304 0.0079, -0.2572 0.6319 0.0, -0.2572 0.6319 0.0079, -0.2535 0.6342 0.0, -0.2535 0.6342 0.0079, -0.2504 0.6373 0.0, -0.2504 0.6373 0.0079, -0.248 0.6411 0.0, -0.248 0.6411 0.0079, -0.2466 0.6452 0.0, -0.2466 0.6452 0.0079, -0.2461 0.6496 0.0, -0.2461 0.6496 0.0079, -0.2461 0.7874 0.0079, -0.2461 0.7913 0.0, -0.3445 0.7874 0.0079, -0.3445 0.7913 0.0, 0.0492 -0.7874 0.0787, 0.0492 -0.7913 0.0787, 0.1476 -0.7874 0.0787, 0.1476 -0.7913 0.0787, 0.1476 -0.6496 0.0079, 0.1476 -0.6496 0.0, 0.1471 -0.6452 0.0, 0.1471 -0.6452 0.0079, 0.1457 -0.6411 0.0, 0.1457 -0.6411 0.0079, 0.1433 -0.6373 0.0, 0.1433 -0.6373 0.0079, 0.1402 -0.6342 0.0, 0.1402 -0.6342 0.0079, 0.1365 -0.6319 0.0, 0.1365 -0.6319 0.0079, 0.1323 -0.6304 0.0, 0.1323 -0.6304 0.0079, 0.128 -0.6299 0.0, 0.128 -0.6299 0.0079, 0.0689 -0.6299 0.0, 0.0689 -0.6299 0.0079, 0.0645 -0.6304 0.0, 0.0645 -0.6304 0.0079, 0.0604 -0.6319 0.0, 0.0604 -0.6319 0.0079, 0.0566 -0.6342 0.0, 0.0566 -0.6342 0.0079, 0.0535 -0.6373 0.0, 0.0535 -0.6373 0.0079, 0.0512 -0.6411 0.0, 0.0512 -0.6411 0.0079, 0.0497 -0.6452 0.0, 0.0497 -0.6452 0.0079, 0.0492 -0.6496 0.0, 0.0492 -0.6496 0.0079, 0.0492 -0.7874 0.0079, 0.0492 -0.7913 0.0, 0.1476 -0.7874 0.0079, 0.1476 -0.7913 0.0, 0.2461 -0.7874 0.0787, 0.2461 -0.7913 0.0787, 0.3445 -0.7874 0.0787, 0.3445 -0.7913 0.0787, 0.3445 -0.6496 0.0079, 0.3445 -0.6496 0.0, 0.344 -0.6452 0.0, 0.344 -0.6452 0.0079, 0.3425 -0.6411 0.0, 0.3425 -0.6411 0.0079, 0.3402 -0.6373 0.0, 0.3402 -0.6373 0.0079, 0.3371 -0.6342 0.0, 0.3371 -0.6342 0.0079, 0.3333 -0.6319 0.0, 0.3333 -0.6319 0.0079, 0.3292 -0.6304 0.0, 0.3292 -0.6304 0.0079, 0.3248 -0.6299 0.0, 0.3248 -0.6299 0.0079, 0.2657 -0.6299 0.0, 0.2657 -0.6299 0.0079, 0.2614 -0.6304 0.0, 0.2614 -0.6304 0.0079, 0.2572 -0.6319 0.0, 0.2572 -0.6319 0.0079, 0.2535 -0.6342 0.0, 0.2535 -0.6342 0.0079, 0.2504 -0.6373 0.0, 0.2504 -0.6373 0.0079, 0.248 -0.6411 0.0, 0.248 -0.6411 0.0079, 0.2466 -0.6452 0.0, 0.2466 -0.6452 0.0079, 0.2461 -0.6496 0.0, 0.2461 -0.6496 0.0079, 0.2461 -0.7874 0.0079, 0.2461 -0.7913 0.0, 0.3445 -0.7874 0.0079, 0.3445 -0.7913 0.0, -0.3445 -0.7874 0.0787, -0.3445 -0.7913 0.0787, -0.2461 -0.7874 0.0787, -0.2461 -0.7913 0.0787, -0.2461 -0.6496 0.0079, -0.2461 -0.6496 0.0, -0.2466 -0.6452 0.0, -0.2466 -0.6452 0.0079, -0.248 -0.6411 0.0, -0.248 -0.6411 0.0079, -0.2504 -0.6373 0.0, -0.2504 -0.6373 0.0079, -0.2535 -0.6342 0.0, -0.2535 -0.6342 0.0079, -0.2572 -0.6319 0.0, -0.2572 -0.6319 0.0079, -0.2614 -0.6304 0.0, -0.2614 -0.6304 0.0079, -0.2657 -0.6299 0.0, -0.2657 -0.6299 0.0079, -0.3248 -0.6299 0.0, -0.3248 -0.6299 0.0079, -0.3292 -0.6304 0.0, -0.3292 -0.6304 0.0079, -0.3333 -0.6319 0.0, -0.3333 -0.6319 0.0079, -0.3371 -0.6342 0.0, -0.3371 -0.6342 0.0079, -0.3402 -0.6373 0.0, -0.3402 -0.6373 0.0079, -0.3425 -0.6411 0.0, -0.3425 -0.6411 0.0079, -0.344 -0.6452 0.0, -0.344 -0.6452 0.0079, -0.3445 -0.6496 0.0, -0.3445 -0.6496 0.0079, -0.3445 -0.7874 0.0079, -0.3445 -0.7913 0.0, -0.2461 -0.7874 0.0079, -0.2461 -0.7913 0.0, -0.1476 -0.7913 0.0787, -0.0492 -0.7913 0.0787, -0.1476 -0.7874 0.0787, -0.0492 -0.7874 0.0787, -0.128 -0.6299 0.0079, -0.128 -0.6299 0.0, -0.1323 -0.6304 0.0, -0.1323 -0.6304 0.0079, -0.1365 -0.6319 0.0, -0.1365 -0.6319 0.0079, -0.1402 -0.6342 0.0, -0.1402 -0.6342 0.0079, -0.1433 -0.6373 0.0, -0.1433 -0.6373 0.0079, -0.1457 -0.6411 0.0, -0.1457 -0.6411 0.0079, -0.1471 -0.6452 0.0, -0.1471 -0.6452 0.0079, -0.1476 -0.6496 0.0, -0.1476 -0.6496 0.0079, -0.1476 -0.7874 0.0079, -0.1476 -0.7913 0.0, -0.0492 -0.7874 0.0079, -0.0492 -0.7913 0.0, -0.0492 -0.6496 0.0079, -0.0492 -0.6496 0.0, -0.0497 -0.6452 0.0, -0.0497 -0.6452 0.0079, -0.0512 -0.6411 0.0, -0.0512 -0.6411 0.0079, -0.0535 -0.6373 0.0, -0.0535 -0.6373 0.0079, -0.0566 -0.6342 0.0, -0.0566 -0.6342 0.0079, -0.0604 -0.6319 0.0, -0.0604 -0.6319 0.0079, -0.0645 -0.6304 0.0, -0.0645 -0.6304 0.0079, -0.0689 -0.6299 0.0, -0.0689 -0.6299 0.0079, 0.5945 -0.1476 0.0787, 0.5945 -0.0492 0.0787, 0.5906 -0.1476 0.0787, 0.5906 -0.0492 0.0787, 0.5906 -0.0492 0.0079, 0.5945 -0.0492 0.0, 0.1772 -0.0492 0.0079, 0.1772 -0.0492 0.0, 0.1728 -0.0497 0.0, 0.1728 -0.0497 0.0079, 0.1686 -0.0512 0.0, 0.1686 -0.0512 0.0079, 0.1649 -0.0535 0.0, 0.1649 -0.0535 0.0079, 0.1618 -0.0566 0.0, 0.1618 -0.0566 0.0079, 0.1594 -0.0604 0.0, 0.1594 -0.0604 0.0079, 0.158 -0.0645 0.0, 0.158 -0.0645 0.0079, 0.1575 -0.0689 0.0, 0.1575 -0.0689 0.0079, 0.1575 -0.128 0.0, 0.1575 -0.128 0.0079, 0.158 -0.1323 0.0, 0.158 -0.1323 0.0079, 0.1594 -0.1365 0.0, 0.1594 -0.1365 0.0079, 0.1618 -0.1402 0.0, 0.1618 -0.1402 0.0079, 0.1649 -0.1433 0.0, 0.1649 -0.1433 0.0079, 0.1686 -0.1457 0.0, 0.1686 -0.1457 0.0079, 0.1728 -0.1471 0.0, 0.1728 -0.1471 0.0079, 0.1772 -0.1476 0.0, 0.1772 -0.1476 0.0079, 0.5906 -0.1476 0.0079, 0.5945 -0.1476 0.0, 0.5906 0.2461 0.0787, 0.5945 0.2461 0.0787, 0.5906 0.3445 0.0787, 0.5945 0.3445 0.0787, 0.1575 0.2657 0.0079, 0.1575 0.2657 0.0, 0.158 0.2614 0.0, 0.158 0.2614 0.0079, 0.1594 0.2572 0.0, 0.1594 0.2572 0.0079, 0.1618 0.2535 0.0, 0.1618 0.2535 0.0079, 0.1649 0.2504 0.0, 0.1649 0.2504 0.0079, 0.1686 0.248 0.0, 0.1686 0.248 0.0079, 0.1728 0.2466 0.0, 0.1728 0.2466 0.0079, 0.1772 0.2461 0.0, 0.1772 0.2461 0.0079, 0.5906 0.2461 0.0079, 0.5945 0.2461 0.0, 0.5906 0.3445 0.0079, 0.5945 0.3445 0.0, 0.1772 0.3445 0.0079, 0.1772 0.3445 0.0, 0.1728 0.344 0.0, 0.1728 0.344 0.0079, 0.1686 0.3425 0.0, 0.1686 0.3425 0.0079, 0.1649 0.3402 0.0, 0.1649 0.3402 0.0079, 0.1618 0.3371 0.0, 0.1618 0.3371 0.0079, 0.1594 0.3333 0.0, 0.1594 0.3333 0.0079, 0.158 0.3292 0.0, 0.158 0.3292 0.0079, 0.1575 0.3248 0.0, 0.1575 0.3248 0.0079, 0.5945 -0.3445 0.0787, 0.5945 -0.2461 0.0787, 0.5906 -0.3445 0.0787, 0.5906 -0.2461 0.0787, 0.1772 -0.3445 0.0079, 0.1772 -0.3445 0.0, 0.5906 -0.3445 0.0079, 0.5945 -0.3445 0.0, 0.5906 -0.2461 0.0079, 0.5945 -0.2461 0.0, 0.1772 -0.2461 0.0079, 0.1772 -0.2461 0.0, 0.1728 -0.2466 0.0, 0.1728 -0.2466 0.0079, 0.1686 -0.248 0.0, 0.1686 -0.248 0.0079, 0.1649 -0.2504 0.0, 0.1649 -0.2504 0.0079, 0.1618 -0.2535 0.0, 0.1618 -0.2535 0.0079, 0.1594 -0.2572 0.0, 0.1594 -0.2572 0.0079, 0.158 -0.2614 0.0, 0.158 -0.2614 0.0079, 0.1575 -0.2657 0.0, 0.1575 -0.2657 0.0079, 0.1575 -0.3248 0.0, 0.1575 -0.3248 0.0079, 0.158 -0.3292 0.0, 0.158 -0.3292 0.0079, 0.1594 -0.3333 0.0, 0.1594 -0.3333 0.0079, 0.1618 -0.3371 0.0, 0.1618 -0.3371 0.0079, 0.1649 -0.3402 0.0, 0.1649 -0.3402 0.0079, 0.1686 -0.3425 0.0, 0.1686 -0.3425 0.0079, 0.1728 -0.344 0.0, 0.1728 -0.344 0.0079, 0.5906 0.0492 0.0787, 0.5945 0.0492 0.0787, 0.5906 0.1476 0.0787, 0.5945 0.1476 0.0787, 0.1772 0.1476 0.0079, 0.1772 0.1476 0.0, 0.1728 0.1471 0.0, 0.1728 0.1471 0.0079, 0.1686 0.1457 0.0, 0.1686 0.1457 0.0079, 0.1649 0.1433 0.0, 0.1649 0.1433 0.0079, 0.1618 0.1402 0.0, 0.1618 0.1402 0.0079, 0.1594 0.1365 0.0, 0.1594 0.1365 0.0079, 0.158 0.1323 0.0, 0.158 0.1323 0.0079, 0.1575 0.128 0.0, 0.1575 0.128 0.0079, 0.1575 0.0689 0.0, 0.1575 0.0689 0.0079, 0.158 0.0645 0.0, 0.158 0.0645 0.0079, 0.1594 0.0604 0.0, 0.1594 0.0604 0.0079, 0.1618 0.0566 0.0, 0.1618 0.0566 0.0079, 0.1649 0.0535 0.0, 0.1649 0.0535 0.0079, 0.1686 0.0512 0.0, 0.1686 0.0512 0.0079, 0.1728 0.0497 0.0, 0.1728 0.0497 0.0079, 0.1772 0.0492 0.0, 0.1772 0.0492 0.0079, 0.5906 0.0492 0.0079, 0.5945 0.0492 0.0, 0.5906 0.1476 0.0079, 0.5945 0.1476 0.0, 0.5945 -0.5413 0.0787, 0.5945 -0.4429 0.0787, 0.5906 -0.5413 0.0787, 0.5906 -0.4429 0.0787, 0.5906 -0.4429 0.0079, 0.5945 -0.4429 0.0, 0.4528 -0.4429 0.0079, 0.4528 -0.4429 0.0, 0.4484 -0.4434 0.0, 0.4484 -0.4434 0.0079, 0.4442 -0.4449 0.0, 0.4442 -0.4449 0.0079, 0.4405 -0.4472 0.0, 0.4405 -0.4472 0.0079, 0.4374 -0.4503 0.0, 0.4374 -0.4503 0.0079, 0.435 -0.4541 0.0, 0.435 -0.4541 0.0079, 0.4336 -0.4582 0.0, 0.4336 -0.4582 0.0079, 0.4331 -0.4626 0.0, 0.4331 -0.4626 0.0079, 0.4331 -0.5217 0.0, 0.4331 -0.5217 0.0079, 0.4336 -0.526 0.0, 0.4336 -0.526 0.0079, 0.435 -0.5302 0.0, 0.435 -0.5302 0.0079, 0.4374 -0.5339 0.0, 0.4374 -0.5339 0.0079, 0.4405 -0.537 0.0, 0.4405 -0.537 0.0079, 0.4442 -0.5394 0.0, 0.4442 -0.5394 0.0079, 0.4484 -0.5408 0.0, 0.4484 -0.5408 0.0079, 0.4528 -0.5413 0.0, 0.4528 -0.5413 0.0079, 0.5906 -0.5413 0.0079, 0.5945 -0.5413 0.0, 0.5906 0.4429 0.0787, 0.5945 0.4429 0.0787, 0.5906 0.5413 0.0787, 0.5945 0.5413 0.0787, 0.4528 0.5413 0.0079, 0.4528 0.5413 0.0, 0.4484 0.5408 0.0, 0.4484 0.5408 0.0079, 0.4442 0.5394 0.0, 0.4442 0.5394 0.0079, 0.4405 0.537 0.0, 0.4405 0.537 0.0079, 0.4374 0.5339 0.0, 0.4374 0.5339 0.0079, 0.435 0.5302 0.0, 0.435 0.5302 0.0079, 0.4336 0.526 0.0, 0.4336 0.526 0.0079, 0.4331 0.5217 0.0, 0.4331 0.5217 0.0079, 0.4331 0.4626 0.0, 0.4331 0.4626 0.0079, 0.4336 0.4582 0.0, 0.4336 0.4582 0.0079, 0.435 0.4541 0.0, 0.435 0.4541 0.0079, 0.4374 0.4503 0.0, 0.4374 0.4503 0.0079, 0.4405 0.4472 0.0, 0.4405 0.4472 0.0079, 0.4442 0.4449 0.0, 0.4442 0.4449 0.0079, 0.4484 0.4434 0.0, 0.4484 0.4434 0.0079, 0.4528 0.4429 0.0, 0.4528 0.4429 0.0079, 0.5906 0.4429 0.0079, 0.5945 0.4429 0.0, 0.5906 0.5413 0.0079, 0.5945 0.5413 0.0, -0.5945 0.3445 0.0787, -0.5945 0.2461 0.0787, -0.5906 0.3445 0.0787, -0.5906 0.2461 0.0787, -0.1772 0.2461 0.0079, -0.1772 0.2461 0.0, -0.1728 0.2466 0.0, -0.1728 0.2466 0.0079, -0.1686 0.248 0.0, -0.1686 0.248 0.0079, -0.1649 0.2504 0.0, -0.1649 0.2504 0.0079, -0.1618 0.2535 0.0, -0.1618 0.2535 0.0079, -0.1594 0.2572 0.0, -0.1594 0.2572 0.0079, -0.158 0.2614 0.0, -0.158 0.2614 0.0079, -0.1575 0.2657 0.0, -0.1575 0.2657 0.0079, -0.1575 0.3248 0.0, -0.1575 0.3248 0.0079, -0.158 0.3292 0.0, -0.158 0.3292 0.0079, -0.1594 0.3333 0.0, -0.1594 0.3333 0.0079, -0.1618 0.3371 0.0, -0.1618 0.3371 0.0079, -0.1649 0.3402 0.0, -0.1649 0.3402 0.0079, -0.1686 0.3425 0.0, -0.1686 0.3425 0.0079, -0.1728 0.344 0.0, -0.1728 0.344 0.0079, -0.1772 0.3445 0.0, -0.1772 0.3445 0.0079, -0.5906 0.3445 0.0079, -0.5945 0.3445 0.0, -0.5906 0.2461 0.0079, -0.5945 0.2461 0.0, -0.5945 0.1476 0.0787, -0.5945 0.0492 0.0787, -0.5906 0.1476 0.0787, -0.5906 0.0492 0.0787, -0.1575 0.128 0.0079, -0.1575 0.128 0.0, -0.158 0.1323 0.0, -0.158 0.1323 0.0079, -0.1594 0.1365 0.0, -0.1594 0.1365 0.0079, -0.1618 0.1402 0.0, -0.1618 0.1402 0.0079, -0.1649 0.1433 0.0, -0.1649 0.1433 0.0079, -0.1686 0.1457 0.0, -0.1686 0.1457 0.0079, -0.1728 0.1471 0.0, -0.1728 0.1471 0.0079, -0.1772 0.1476 0.0, -0.1772 0.1476 0.0079, -0.5906 0.1476 0.0079, -0.5945 0.1476 0.0, -0.5906 0.0492 0.0079, -0.5945 0.0492 0.0, -0.1772 0.0492 0.0079, -0.1772 0.0492 0.0, -0.1728 0.0497 0.0, -0.1728 0.0497 0.0079, -0.1686 0.0512 0.0, -0.1686 0.0512 0.0079, -0.1649 0.0535 0.0, -0.1649 0.0535 0.0079, -0.1618 0.0566 0.0, -0.1618 0.0566 0.0079, -0.1594 0.0604 0.0, -0.1594 0.0604 0.0079, -0.158 0.0645 0.0, -0.158 0.0645 0.0079, -0.1575 0.0689 0.0, -0.1575 0.0689 0.0079, -0.5906 -0.0492 0.0787, -0.5945 -0.0492 0.0787, -0.5906 -0.1476 0.0787, -0.5945 -0.1476 0.0787, -0.1772 -0.1476 0.0079, -0.1772 -0.1476 0.0, -0.1728 -0.1471 0.0, -0.1728 -0.1471 0.0079, -0.1686 -0.1457 0.0, -0.1686 -0.1457 0.0079, -0.1649 -0.1433 0.0, -0.1649 -0.1433 0.0079, -0.1618 -0.1402 0.0, -0.1618 -0.1402 0.0079, -0.1594 -0.1365 0.0, -0.1594 -0.1365 0.0079, -0.158 -0.1323 0.0, -0.158 -0.1323 0.0079, -0.1575 -0.128 0.0, -0.1575 -0.128 0.0079, -0.1575 -0.0689 0.0, -0.1575 -0.0689 0.0079, -0.158 -0.0645 0.0, -0.158 -0.0645 0.0079, -0.1594 -0.0604 0.0, -0.1594 -0.0604 0.0079, -0.1618 -0.0566 0.0, -0.1618 -0.0566 0.0079, -0.1649 -0.0535 0.0, -0.1649 -0.0535 0.0079, -0.1686 -0.0512 0.0, -0.1686 -0.0512 0.0079, -0.1728 -0.0497 0.0, -0.1728 -0.0497 0.0079, -0.1772 -0.0492 0.0, -0.1772 -0.0492 0.0079, -0.5906 -0.0492 0.0079, -0.5945 -0.0492 0.0, -0.5906 -0.1476 0.0079, -0.5945 -0.1476 0.0, -0.5906 -0.2461 0.0787, -0.5945 -0.2461 0.0787, -0.5906 -0.3445 0.0787, -0.5945 -0.3445 0.0787, -0.1575 -0.2657 0.0079, -0.1575 -0.2657 0.0, -0.158 -0.2614 0.0, -0.158 -0.2614 0.0079, -0.1594 -0.2572 0.0, -0.1594 -0.2572 0.0079, -0.1618 -0.2535 0.0, -0.1618 -0.2535 0.0079, -0.1649 -0.2504 0.0, -0.1649 -0.2504 0.0079, -0.1686 -0.248 0.0, -0.1686 -0.248 0.0079, -0.1728 -0.2466 0.0, -0.1728 -0.2466 0.0079, -0.1772 -0.2461 0.0, -0.1772 -0.2461 0.0079, -0.5906 -0.2461 0.0079, -0.5945 -0.2461 0.0, -0.5906 -0.3445 0.0079, -0.5945 -0.3445 0.0, -0.1772 -0.3445 0.0079, -0.1772 -0.3445 0.0, -0.1728 -0.344 0.0, -0.1728 -0.344 0.0079, -0.1686 -0.3425 0.0, -0.1686 -0.3425 0.0079, -0.1649 -0.3402 0.0, -0.1649 -0.3402 0.0079, -0.1618 -0.3371 0.0, -0.1618 -0.3371 0.0079, -0.1594 -0.3333 0.0, -0.1594 -0.3333 0.0079, -0.158 -0.3292 0.0, -0.158 -0.3292 0.0079, -0.1575 -0.3248 0.0, -0.1575 -0.3248 0.0079, -0.5906 -0.4429 0.0787, -0.5945 -0.4429 0.0787, -0.5906 -0.5413 0.0787, -0.5945 -0.5413 0.0787, -0.4528 -0.5413 0.0079, -0.4528 -0.5413 0.0, -0.4484 -0.5408 0.0, -0.4484 -0.5408 0.0079, -0.4442 -0.5394 0.0, -0.4442 -0.5394 0.0079, -0.4405 -0.537 0.0, -0.4405 -0.537 0.0079, -0.4374 -0.5339 0.0, -0.4374 -0.5339 0.0079, -0.435 -0.5302 0.0, -0.435 -0.5302 0.0079, -0.4336 -0.526 0.0, -0.4336 -0.526 0.0079, -0.4331 -0.5217 0.0, -0.4331 -0.5217 0.0079, -0.4331 -0.4626 0.0, -0.4331 -0.4626 0.0079, -0.4336 -0.4582 0.0, -0.4336 -0.4582 0.0079, -0.435 -0.4541 0.0, -0.435 -0.4541 0.0079, -0.4374 -0.4503 0.0, -0.4374 -0.4503 0.0079, -0.4405 -0.4472 0.0, -0.4405 -0.4472 0.0079, -0.4442 -0.4449 0.0, -0.4442 -0.4449 0.0079, -0.4484 -0.4434 0.0, -0.4484 -0.4434 0.0079, -0.4528 -0.4429 0.0, -0.4528 -0.4429 0.0079, -0.5906 -0.4429 0.0079, -0.5945 -0.4429 0.0, -0.5906 -0.5413 0.0079, -0.5945 -0.5413 0.0, -0.5906 0.5413 0.0787, -0.5945 0.5413 0.0787, -0.5906 0.4429 0.0787, -0.5945 0.4429 0.0787, -0.5906 0.4429 0.0079, -0.5945 0.4429 0.0, -0.4134 0.4429 0.0079, -0.4134 0.4429 0.0, -0.409 0.4434 0.0, -0.409 0.4434 0.0079, -0.4048 0.4449 0.0, -0.4048 0.4449 0.0079, -0.4011 0.4472 0.0, -0.4011 0.4472 0.0079, -0.398 0.4503 0.0, -0.398 0.4503 0.0079, -0.3957 0.4541 0.0, -0.3957 0.4541 0.0079, -0.3942 0.4582 0.0, -0.3942 0.4582 0.0079, -0.3937 0.4626 0.0, -0.3937 0.4626 0.0079, -0.3937 0.502 0.0, -0.3937 0.502 0.0079, -0.4331 0.5413 0.0, -0.4331 0.5413 0.0079, -0.5906 0.5413 0.0079, -0.5945 0.5413 0.0
            ]
        }
        coordIndex [
            0,1,2,-1,2,1,3,-1,3,1,4,-1,4,1,5,-1,4,5,6,-1,6,5,7,-1,6,7,8,-1,6,8,9,-1,9,8,10,-1,9,10,11,-1,11,10,12,-1,11,12,13,-1,13,12,14,-1,13,14,15,-1,15,14,16,-1,15,16,17,-1,17,16,18,-1,17,18,19,-1,19,18,20,-1,19,20,21,-1,20,22,21,-1,21,22,23,-1,23,22,24,-1,23,24,25,-1,25,24,26,-1,25,26,27,-1,27,26,28,-1,27,28,29,-1,29,28,30,-1,29,30,31,-1,31,30,32,-1,31,32,33,-1,33,32,34,-1,33,34,35,-1,35,34,36,-1,35,36,37,-1,37,36,38,-1,38,36,39,-1,38,39,2,-1,2,39,0,-1,5,1,39,-1,39,1,0,-1,24,22,36,-1,36,22,39,-1,8,7,16,-1,32,30,34,-1,34,30,28,-1,34,28,36,-1,36,28,26,-1,36,26,24,-1,39,22,5,-1,5,22,20,-1,5,20,7,-1,7,20,18,-1,7,18,16,-1,8,16,10,-1,10,16,14,-1,10,14,12,-1,40,41,42,-1,42,41,43,-1,43,41,44,-1,44,41,45,-1,44,45,46,-1,46,45,47,-1,46,47,48,-1,46,48,49,-1,49,48,50,-1,49,50,51,-1,51,50,52,-1,51,52,53,-1,53,52,54,-1,53,54,55,-1,55,54,56,-1,55,56,57,-1,57,56,58,-1,57,58,59,-1,59,58,60,-1,59,60,61,-1,60,62,61,-1,61,62,63,-1,63,62,64,-1,63,64,65,-1,65,64,66,-1,65,66,67,-1,67,66,68,-1,67,68,69,-1,69,68,70,-1,69,70,71,-1,71,70,72,-1,71,72,73,-1,73,72,74,-1,73,74,75,-1,75,74,76,-1,75,76,77,-1,77,76,78,-1,78,76,79,-1,78,79,42,-1,42,79,40,-1,45,41,79,-1,79,41,40,-1,64,62,76,-1,76,62,79,-1,79,62,45,-1,45,62,60,-1,45,60,47,-1,72,70,74,-1,74,70,68,-1,74,68,76,-1,76,68,66,-1,76,66,64,-1,60,58,47,-1,47,58,56,-1,47,56,48,-1,48,56,54,-1,48,54,50,-1,50,54,52,-1,80,81,82,-1,82,81,83,-1,82,83,84,-1,84,83,85,-1,84,85,86,-1,86,85,87,-1,86,87,88,-1,86,88,89,-1,89,88,90,-1,89,90,91,-1,91,90,92,-1,91,92,93,-1,93,92,94,-1,93,94,95,-1,95,94,96,-1,95,96,97,-1,97,96,98,-1,97,98,99,-1,99,98,100,-1,99,100,101,-1,100,102,101,-1,101,102,103,-1,103,102,104,-1,103,104,105,-1,105,104,106,-1,105,106,107,-1,107,106,108,-1,107,108,109,-1,109,108,110,-1,109,110,111,-1,111,110,112,-1,111,112,113,-1,113,112,114,-1,113,114,115,-1,115,114,116,-1,115,116,117,-1,117,116,118,-1,118,116,119,-1,118,119,80,-1,80,119,81,-1,85,83,119,-1,119,83,81,-1,106,112,108,-1,108,112,110,-1,116,114,102,-1,102,114,112,-1,102,112,104,-1,104,112,106,-1,98,87,100,-1,100,87,85,-1,100,85,102,-1,102,85,119,-1,102,119,116,-1,94,92,90,-1,98,96,87,-1,87,96,94,-1,87,94,88,-1,88,94,90,-1,120,121,122,-1,122,121,123,-1,124,125,126,-1,124,126,127,-1,127,126,128,-1,127,128,129,-1,129,128,130,-1,129,130,131,-1,131,130,132,-1,131,132,133,-1,133,132,134,-1,133,134,135,-1,135,134,136,-1,135,136,137,-1,137,136,138,-1,137,138,139,-1,138,140,139,-1,139,140,141,-1,141,140,142,-1,141,142,143,-1,143,142,144,-1,143,144,145,-1,145,144,146,-1,145,146,147,-1,147,146,148,-1,147,148,149,-1,149,148,150,-1,149,150,151,-1,151,150,152,-1,151,152,153,-1,153,152,154,-1,153,154,155,-1,155,154,156,-1,156,154,157,-1,156,157,120,-1,120,157,121,-1,122,123,158,-1,158,123,159,-1,158,159,124,-1,124,159,125,-1,159,123,157,-1,157,123,121,-1,144,150,146,-1,146,150,148,-1,154,152,140,-1,140,152,150,-1,140,150,142,-1,142,150,144,-1,136,125,138,-1,138,125,159,-1,138,159,140,-1,140,159,157,-1,140,157,154,-1,132,130,128,-1,136,134,125,-1,125,134,132,-1,125,132,126,-1,126,132,128,-1,160,161,162,-1,162,161,163,-1,164,165,166,-1,164,166,167,-1,167,166,168,-1,167,168,169,-1,169,168,170,-1,169,170,171,-1,171,170,172,-1,171,172,173,-1,173,172,174,-1,173,174,175,-1,175,174,176,-1,175,176,177,-1,177,176,178,-1,177,178,179,-1,178,180,179,-1,179,180,181,-1,181,180,182,-1,181,182,183,-1,183,182,184,-1,183,184,185,-1,185,184,186,-1,185,186,187,-1,187,186,188,-1,187,188,189,-1,189,188,190,-1,189,190,191,-1,191,190,192,-1,191,192,193,-1,193,192,194,-1,193,194,195,-1,195,194,196,-1,196,194,197,-1,196,197,160,-1,160,197,161,-1,162,163,198,-1,198,163,199,-1,198,199,164,-1,164,199,165,-1,199,163,197,-1,197,163,161,-1,182,180,194,-1,194,180,197,-1,174,172,165,-1,188,186,190,-1,190,186,192,-1,192,186,194,-1,194,186,184,-1,194,184,182,-1,197,180,199,-1,199,180,178,-1,199,178,165,-1,165,178,176,-1,165,176,174,-1,170,168,172,-1,172,168,166,-1,172,166,165,-1,200,201,202,-1,202,201,203,-1,204,205,206,-1,204,206,207,-1,207,206,208,-1,207,208,209,-1,209,208,210,-1,209,210,211,-1,211,210,212,-1,211,212,213,-1,213,212,214,-1,213,214,215,-1,215,214,216,-1,215,216,217,-1,217,216,218,-1,217,218,219,-1,218,220,219,-1,219,220,221,-1,221,220,222,-1,221,222,223,-1,223,222,224,-1,223,224,225,-1,225,224,226,-1,225,226,227,-1,227,226,228,-1,227,228,229,-1,229,228,230,-1,229,230,231,-1,231,230,232,-1,231,232,233,-1,233,232,234,-1,233,234,235,-1,235,234,236,-1,236,234,237,-1,236,237,200,-1,200,237,201,-1,202,203,238,-1,238,203,239,-1,238,239,204,-1,204,239,205,-1,239,203,237,-1,237,203,201,-1,239,237,205,-1,205,237,234,-1,222,220,234,-1,230,228,226,-1,230,226,232,-1,234,220,205,-1,205,220,218,-1,205,218,206,-1,232,226,234,-1,234,226,224,-1,234,224,222,-1,214,212,216,-1,216,212,210,-1,216,210,218,-1,218,210,208,-1,218,208,206,-1,240,241,242,-1,242,241,243,-1,244,245,246,-1,244,246,247,-1,247,246,248,-1,247,248,249,-1,249,248,250,-1,249,250,251,-1,251,250,252,-1,251,252,253,-1,253,252,254,-1,253,254,255,-1,255,254,256,-1,255,256,257,-1,257,256,258,-1,257,258,259,-1,258,260,259,-1,259,260,261,-1,261,260,262,-1,261,262,263,-1,263,262,264,-1,263,264,265,-1,265,264,266,-1,265,266,267,-1,267,266,268,-1,267,268,269,-1,269,268,270,-1,269,270,271,-1,271,270,272,-1,271,272,273,-1,273,272,274,-1,273,274,275,-1,275,274,276,-1,276,274,277,-1,276,277,240,-1,240,277,241,-1,242,243,278,-1,278,243,279,-1,278,279,244,-1,244,279,245,-1,279,243,277,-1,277,243,241,-1,260,258,274,-1,274,258,277,-1,256,245,258,-1,258,245,279,-1,258,279,277,-1,252,250,248,-1,256,254,245,-1,245,254,252,-1,245,252,246,-1,246,252,248,-1,264,270,266,-1,266,270,268,-1,274,272,260,-1,260,272,270,-1,260,270,262,-1,262,270,264,-1,280,281,282,-1,282,281,283,-1,284,285,286,-1,284,286,287,-1,287,286,288,-1,287,288,289,-1,289,288,290,-1,289,290,291,-1,291,290,292,-1,291,292,293,-1,293,292,294,-1,293,294,295,-1,295,294,296,-1,295,296,297,-1,297,296,298,-1,297,298,299,-1,299,298,300,-1,300,298,301,-1,300,301,282,-1,282,301,280,-1,283,281,302,-1,302,281,303,-1,302,303,304,-1,304,303,305,-1,304,305,306,-1,304,306,307,-1,307,306,308,-1,307,308,309,-1,309,308,310,-1,309,310,311,-1,311,310,312,-1,311,312,313,-1,313,312,314,-1,313,314,315,-1,315,314,316,-1,315,316,317,-1,317,316,318,-1,317,318,319,-1,318,285,319,-1,319,285,284,-1,303,281,301,-1,301,281,280,-1,286,285,298,-1,298,285,301,-1,314,312,305,-1,294,292,296,-1,296,292,290,-1,296,290,298,-1,298,290,288,-1,298,288,286,-1,301,285,303,-1,303,285,318,-1,303,318,305,-1,305,318,316,-1,305,316,314,-1,310,308,312,-1,312,308,306,-1,312,306,305,-1,320,321,322,-1,322,321,323,-1,323,321,324,-1,324,321,325,-1,324,325,326,-1,326,325,327,-1,326,327,328,-1,326,328,329,-1,329,328,330,-1,329,330,331,-1,331,330,332,-1,331,332,333,-1,333,332,334,-1,333,334,335,-1,335,334,336,-1,335,336,337,-1,337,336,338,-1,337,338,339,-1,339,338,340,-1,339,340,341,-1,340,342,341,-1,341,342,343,-1,343,342,344,-1,343,344,345,-1,345,344,346,-1,345,346,347,-1,347,346,348,-1,347,348,349,-1,349,348,350,-1,349,350,351,-1,351,350,352,-1,351,352,353,-1,353,352,354,-1,353,354,355,-1,355,354,356,-1,355,356,357,-1,357,356,358,-1,358,356,359,-1,358,359,322,-1,322,359,320,-1,325,321,359,-1,359,321,320,-1,325,359,327,-1,327,359,356,-1,327,356,342,-1,342,356,354,-1,350,348,346,-1,354,352,342,-1,342,352,350,-1,342,350,344,-1,344,350,346,-1,342,340,327,-1,327,340,338,-1,327,338,336,-1,336,334,327,-1,327,334,332,-1,327,332,328,-1,328,332,330,-1,360,361,362,-1,362,361,363,-1,364,365,366,-1,364,366,367,-1,367,366,368,-1,367,368,369,-1,369,368,370,-1,369,370,371,-1,371,370,372,-1,371,372,373,-1,373,372,374,-1,373,374,375,-1,375,374,376,-1,375,376,377,-1,377,376,378,-1,377,378,379,-1,379,378,380,-1,380,378,381,-1,380,381,360,-1,360,381,361,-1,362,363,382,-1,382,363,383,-1,382,383,384,-1,384,383,385,-1,384,385,386,-1,384,386,387,-1,387,386,388,-1,387,388,389,-1,389,388,390,-1,389,390,391,-1,391,390,392,-1,391,392,393,-1,393,392,394,-1,393,394,395,-1,395,394,396,-1,395,396,397,-1,397,396,398,-1,397,398,399,-1,398,365,399,-1,399,365,364,-1,383,363,381,-1,381,363,361,-1,383,381,385,-1,385,381,365,-1,381,378,365,-1,365,378,376,-1,365,376,366,-1,366,376,368,-1,374,372,376,-1,376,372,370,-1,376,370,368,-1,388,396,390,-1,390,396,394,-1,390,394,392,-1,365,398,385,-1,385,398,396,-1,385,396,386,-1,386,396,388,-1,400,401,402,-1,402,401,403,-1,404,405,406,-1,406,405,407,-1,406,407,402,-1,402,407,400,-1,403,401,408,-1,408,401,409,-1,408,409,410,-1,410,409,411,-1,410,411,412,-1,410,412,413,-1,413,412,414,-1,413,414,415,-1,415,414,416,-1,415,416,417,-1,417,416,418,-1,417,418,419,-1,419,418,420,-1,419,420,421,-1,421,420,422,-1,421,422,423,-1,423,422,424,-1,423,424,425,-1,424,426,425,-1,425,426,427,-1,427,426,428,-1,427,428,429,-1,429,428,430,-1,429,430,431,-1,431,430,432,-1,431,432,433,-1,433,432,434,-1,433,434,435,-1,435,434,436,-1,435,436,437,-1,437,436,438,-1,437,438,439,-1,439,438,405,-1,439,405,404,-1,409,401,407,-1,407,401,400,-1,412,411,424,-1,409,407,411,-1,411,407,405,-1,424,411,426,-1,426,411,405,-1,426,405,428,-1,418,416,420,-1,420,416,422,-1,422,416,424,-1,424,416,414,-1,424,414,412,-1,434,405,436,-1,436,405,438,-1,434,432,405,-1,405,432,430,-1,405,430,428,-1,440,441,442,-1,442,441,443,-1,444,445,446,-1,444,446,447,-1,447,446,448,-1,447,448,449,-1,449,448,450,-1,449,450,451,-1,451,450,452,-1,451,452,453,-1,453,452,454,-1,453,454,455,-1,455,454,456,-1,455,456,457,-1,457,456,458,-1,457,458,459,-1,458,460,459,-1,459,460,461,-1,461,460,462,-1,461,462,463,-1,463,462,464,-1,463,464,465,-1,465,464,466,-1,465,466,467,-1,467,466,468,-1,467,468,469,-1,469,468,470,-1,469,470,471,-1,471,470,472,-1,471,472,473,-1,473,472,474,-1,473,474,475,-1,475,474,476,-1,476,474,477,-1,476,477,440,-1,440,477,441,-1,442,443,478,-1,478,443,479,-1,478,479,444,-1,444,479,445,-1,479,443,477,-1,477,443,441,-1,479,477,445,-1,445,477,474,-1,446,445,456,-1,456,445,458,-1,452,450,448,-1,470,468,462,-1,462,468,466,-1,462,466,464,-1,446,456,448,-1,448,456,454,-1,448,454,452,-1,458,445,460,-1,460,445,474,-1,460,474,462,-1,462,474,472,-1,462,472,470,-1,480,481,482,-1,482,481,483,-1,483,481,484,-1,484,481,485,-1,484,485,486,-1,486,485,487,-1,486,487,488,-1,486,488,489,-1,489,488,490,-1,489,490,491,-1,491,490,492,-1,491,492,493,-1,493,492,494,-1,493,494,495,-1,495,494,496,-1,495,496,497,-1,497,496,498,-1,497,498,499,-1,499,498,500,-1,499,500,501,-1,500,502,501,-1,501,502,503,-1,503,502,504,-1,503,504,505,-1,505,504,506,-1,505,506,507,-1,507,506,508,-1,507,508,509,-1,509,508,510,-1,509,510,511,-1,511,510,512,-1,511,512,513,-1,513,512,514,-1,513,514,515,-1,515,514,516,-1,515,516,517,-1,517,516,518,-1,518,516,519,-1,518,519,482,-1,482,519,480,-1,485,481,519,-1,519,481,480,-1,502,500,487,-1,485,519,487,-1,487,519,516,-1,487,516,502,-1,502,516,514,-1,502,514,512,-1,512,510,502,-1,502,510,508,-1,502,508,504,-1,504,508,506,-1,500,498,487,-1,487,498,496,-1,487,496,494,-1,494,492,487,-1,487,492,490,-1,487,490,488,-1,520,521,522,-1,522,521,523,-1,524,525,526,-1,524,526,527,-1,527,526,528,-1,527,528,529,-1,529,528,530,-1,529,530,531,-1,531,530,532,-1,531,532,533,-1,533,532,534,-1,533,534,535,-1,535,534,536,-1,535,536,537,-1,537,536,538,-1,537,538,539,-1,538,540,539,-1,539,540,541,-1,541,540,542,-1,541,542,543,-1,543,542,544,-1,543,544,545,-1,545,544,546,-1,545,546,547,-1,547,546,548,-1,547,548,549,-1,549,548,550,-1,549,550,551,-1,551,550,552,-1,551,552,553,-1,553,552,554,-1,553,554,555,-1,555,554,556,-1,556,554,557,-1,556,557,520,-1,520,557,521,-1,522,523,558,-1,558,523,559,-1,558,559,524,-1,524,559,525,-1,559,523,557,-1,557,523,521,-1,525,559,557,-1,557,554,525,-1,525,554,540,-1,525,540,538,-1,552,544,554,-1,554,544,542,-1,554,542,540,-1,552,550,544,-1,544,550,548,-1,544,548,546,-1,538,536,525,-1,525,536,534,-1,525,534,532,-1,532,530,525,-1,525,530,528,-1,525,528,526,-1,560,561,562,-1,562,561,563,-1,564,565,566,-1,564,566,567,-1,567,566,568,-1,567,568,569,-1,569,568,570,-1,569,570,571,-1,571,570,572,-1,571,572,573,-1,573,572,574,-1,573,574,575,-1,575,574,576,-1,575,576,577,-1,577,576,578,-1,577,578,579,-1,578,580,579,-1,579,580,581,-1,581,580,582,-1,581,582,583,-1,583,582,584,-1,583,584,585,-1,585,584,586,-1,585,586,587,-1,587,586,588,-1,587,588,589,-1,589,588,590,-1,589,590,591,-1,591,590,592,-1,591,592,593,-1,593,592,594,-1,593,594,595,-1,595,594,596,-1,596,594,597,-1,596,597,562,-1,562,597,560,-1,563,561,598,-1,598,561,599,-1,598,599,564,-1,564,599,565,-1,599,561,597,-1,597,561,560,-1,599,597,578,-1,578,597,594,-1,568,566,578,-1,578,566,565,-1,578,565,599,-1,576,574,572,-1,592,590,588,-1,584,582,594,-1,594,582,580,-1,594,580,578,-1,592,588,594,-1,594,588,586,-1,594,586,584,-1,576,572,578,-1,578,572,570,-1,578,570,568,-1,600,601,602,-1,602,601,603,-1,604,605,606,-1,604,606,607,-1,607,606,608,-1,607,608,609,-1,609,608,610,-1,609,610,611,-1,611,610,612,-1,611,612,613,-1,613,612,614,-1,613,614,615,-1,615,614,616,-1,615,616,617,-1,617,616,618,-1,617,618,619,-1,619,618,620,-1,620,618,621,-1,620,621,602,-1,602,621,600,-1,603,601,622,-1,622,601,623,-1,622,623,624,-1,624,623,625,-1,624,625,626,-1,624,626,627,-1,627,626,628,-1,627,628,629,-1,629,628,630,-1,629,630,631,-1,631,630,632,-1,631,632,633,-1,633,632,634,-1,633,634,635,-1,635,634,636,-1,635,636,637,-1,637,636,638,-1,637,638,639,-1,638,605,639,-1,639,605,604,-1,623,601,621,-1,621,601,600,-1,626,625,638,-1,638,625,605,-1,614,612,605,-1,632,638,634,-1,634,638,636,-1,632,630,638,-1,638,630,628,-1,638,628,626,-1,623,621,625,-1,625,621,618,-1,625,618,605,-1,605,618,616,-1,605,616,614,-1,610,608,612,-1,612,608,606,-1,612,606,605,-1,640,641,642,-1,642,641,643,-1,644,645,646,-1,644,646,647,-1,647,646,648,-1,647,648,649,-1,649,648,650,-1,649,650,651,-1,651,650,652,-1,651,652,653,-1,653,652,654,-1,653,654,655,-1,655,654,656,-1,655,656,657,-1,657,656,658,-1,657,658,659,-1,658,660,659,-1,659,660,661,-1,661,660,662,-1,661,662,663,-1,663,662,664,-1,663,664,665,-1,665,664,666,-1,665,666,667,-1,667,666,668,-1,667,668,669,-1,669,668,670,-1,669,670,671,-1,671,670,672,-1,671,672,673,-1,673,672,674,-1,673,674,675,-1,675,674,676,-1,676,674,677,-1,676,677,640,-1,640,677,641,-1,642,643,678,-1,678,643,679,-1,678,679,644,-1,644,679,645,-1,679,643,677,-1,677,643,641,-1,679,677,645,-1,645,677,674,-1,674,672,670,-1,670,668,674,-1,674,668,666,-1,674,666,664,-1,656,654,652,-1,664,662,674,-1,674,662,660,-1,674,660,645,-1,645,660,658,-1,645,658,646,-1,646,658,648,-1,656,652,658,-1,658,652,650,-1,658,650,648,-1,680,681,682,-1,682,681,683,-1,684,685,686,-1,684,686,687,-1,687,686,688,-1,687,688,689,-1,689,688,690,-1,689,690,691,-1,691,690,692,-1,691,692,693,-1,693,692,694,-1,693,694,695,-1,695,694,696,-1,695,696,697,-1,697,696,698,-1,697,698,699,-1,699,698,700,-1,700,698,701,-1,700,701,680,-1,680,701,681,-1,682,683,702,-1,702,683,703,-1,702,703,704,-1,704,703,705,-1,704,705,706,-1,704,706,707,-1,707,706,708,-1,707,708,709,-1,709,708,710,-1,709,710,711,-1,711,710,712,-1,711,712,713,-1,713,712,714,-1,713,714,715,-1,715,714,716,-1,715,716,717,-1,717,716,718,-1,717,718,719,-1,718,685,719,-1,719,685,684,-1,703,683,701,-1,701,683,681,-1,703,701,705,-1,705,701,698,-1,685,698,696,-1,692,690,688,-1,696,694,685,-1,685,694,692,-1,685,692,686,-1,686,692,688,-1,698,685,705,-1,705,685,718,-1,705,718,716,-1,712,710,708,-1,716,714,705,-1,705,714,712,-1,705,712,706,-1,706,712,708,-1,720,721,722,-1,722,721,723,-1,724,725,726,-1,724,726,727,-1,727,726,728,-1,727,728,729,-1,729,728,730,-1,729,730,731,-1,731,730,732,-1,731,732,733,-1,733,732,734,-1,733,734,735,-1,735,734,736,-1,735,736,737,-1,737,736,738,-1,737,738,739,-1,738,740,739,-1,739,740,741,-1,741,740,742,-1,741,742,743,-1,743,742,744,-1,743,744,745,-1,745,744,746,-1,745,746,747,-1,747,746,748,-1,747,748,749,-1,749,748,750,-1,749,750,751,-1,751,750,752,-1,751,752,753,-1,753,752,754,-1,753,754,755,-1,755,754,756,-1,756,754,757,-1,756,757,720,-1,720,757,721,-1,722,723,758,-1,758,723,759,-1,758,759,724,-1,724,759,725,-1,759,723,757,-1,757,723,721,-1,740,757,754,-1,754,752,740,-1,740,752,750,-1,740,750,748,-1,748,746,740,-1,740,746,744,-1,740,744,742,-1,757,740,759,-1,759,740,738,-1,759,738,725,-1,725,738,736,-1,725,736,734,-1,734,732,725,-1,725,732,730,-1,725,730,726,-1,726,730,728,-1,760,761,762,-1,762,761,763,-1,762,763,764,-1,764,763,765,-1,764,765,766,-1,766,765,767,-1,766,767,768,-1,766,768,769,-1,769,768,770,-1,769,770,771,-1,771,770,772,-1,771,772,773,-1,773,772,774,-1,773,774,775,-1,775,774,776,-1,775,776,777,-1,777,776,778,-1,777,778,779,-1,779,778,780,-1,779,780,781,-1,780,782,781,-1,781,782,783,-1,782,784,783,-1,783,784,785,-1,785,784,786,-1,786,784,787,-1,786,787,760,-1,760,787,761,-1,765,763,787,-1,787,763,761,-1,784,782,780,-1,787,784,765,-1,765,784,780,-1,765,780,767,-1,767,780,778,-1,767,778,776,-1,776,774,767,-1,767,774,772,-1,767,772,768,-1,768,772,770,-1,
        ]
    }
}
Shape{
    appearance Appearance {
        material  Material 	{
            diffuseColor 1.0 1.0 1.0
            specularColor 0.5019607843137255 0.5019607843137255 0.5019607843137255
            ambientIntensity 1.0
            transparency 0.0
            shininess 0.5
        }
    }
    geometry IndexedFaceSet {
        ccw TRUE
        solid FALSE
        coord DEF co Coordinate {
            point [
                -0.1779 0.4806 0.0079, -0.1779 0.4806 0.0118, -0.1667 0.4475 0.0079, -0.1667 0.4475 0.0118, -0.2267 0.4806 0.0079, -0.2267 0.4806 0.0118, -0.2387 0.4475 0.0079, -0.2387 0.4475 0.0118, -0.256 0.4475 0.0079, -0.256 0.4475 0.0118, -0.2099 0.5656 0.0079, -0.2099 0.5656 0.0118, -0.194 0.5656 0.0079, -0.194 0.5656 0.0118, -0.1494 0.4475 0.0079, -0.1494 0.4475 0.0118, -0.1819 0.4935 0.0118, -0.1995 0.5429 0.0118, -0.2026 0.547 0.0118, -0.2014 0.5512 0.0118, -0.2007 0.547 0.0118, -0.2214 0.4935 0.0118, -0.2036 0.5429 0.0118, -0.1819 0.4935 0.0079, -0.1995 0.5429 0.0079, -0.2214 0.4935 0.0079, -0.2036 0.5429 0.0079, -0.2026 0.547 0.0079, -0.2014 0.5512 0.0079, -0.2007 0.547 0.0079, -0.0457 0.4475 0.0079, -0.0457 0.4475 0.0118, -0.0457 0.5656 0.0079, -0.0457 0.5656 0.0118, -0.0778 0.4475 0.0079, -0.0778 0.4475 0.0118, -0.1407 0.508 0.0079, -0.1407 0.508 0.0118, -0.1374 0.4955 0.0118, -0.1374 0.4955 0.0079, -0.1297 0.4744 0.0118, -0.1297 0.4744 0.0079, -0.1233 0.4647 0.0118, -0.1233 0.4647 0.0079, -0.117 0.459 0.0118, -0.117 0.459 0.0079, -0.1088 0.4545 0.0118, -0.1088 0.4545 0.0079, -0.0968 0.4508 0.0118, -0.0968 0.4508 0.0079, -0.079 0.5656 0.0079, -0.079 0.5656 0.0118, -0.092 0.5629 0.0118, -0.092 0.5629 0.0079, -0.1125 0.5565 0.0118, -0.1125 0.5565 0.0079, -0.122 0.5508 0.0118, -0.122 0.5508 0.0079, -0.1279 0.5451 0.0118, -0.1279 0.5451 0.0079, -0.1325 0.5374 0.0118, -0.1325 0.5374 0.0079, -0.1367 0.5261 0.0118, -0.1367 0.5261 0.0079, -0.1209 0.5236 0.0118, -0.1249 0.5077 0.0118, -0.1227 0.4935 0.0118, -0.1201 0.4844 0.0118, -0.117 0.4782 0.0118, -0.1132 0.4737 0.0118, -0.107 0.4693 0.0118, -0.0948 0.4644 0.0118, -0.1161 0.5354 0.0118, -0.1118 0.5414 0.0118, -0.1075 0.545 0.0118, -0.1015 0.548 0.0118, -0.0927 0.5505 0.0118, -0.0789 0.5526 0.0118, -0.0615 0.5526 0.0118, -0.0615 0.4604 0.0118, -0.0783 0.4604 0.0118, -0.1249 0.5077 0.0079, -0.1209 0.5236 0.0079, -0.1161 0.5354 0.0079, -0.1118 0.5414 0.0079, -0.1075 0.545 0.0079, -0.1015 0.548 0.0079, -0.0927 0.5505 0.0079, -0.0789 0.5526 0.0079, -0.0615 0.5526 0.0079, -0.0615 0.4604 0.0079, -0.0783 0.4604 0.0079, -0.0948 0.4644 0.0079, -0.107 0.4693 0.0079, -0.1132 0.4737 0.0079, -0.117 0.4782 0.0079, -0.1201 0.4844 0.0079, -0.1227 0.4935 0.0079, -0.0169 0.5137 0.0079, -0.0169 0.5137 0.0118, -0.0169 0.5008 0.0079, -0.0169 0.5008 0.0118, 0.0249 0.5137 0.0079, 0.0249 0.5137 0.0118, 0.0249 0.5526 0.0079, 0.0249 0.5526 0.0118, -0.0197 0.5526 0.0079, -0.0197 0.5526 0.0118, -0.0197 0.5656 0.0079, -0.0197 0.5656 0.0118, 0.0408 0.5656 0.0079, 0.0408 0.5656 0.0118, 0.0408 0.4475 0.0079, 0.0408 0.4475 0.0118, -0.0226 0.4475 0.0079, -0.0226 0.4475 0.0118, -0.0226 0.4604 0.0079, -0.0226 0.4604 0.0118, 0.0249 0.4604 0.0079, 0.0249 0.4604 0.0118, 0.0249 0.5008 0.0079, 0.0249 0.5008 0.0118, 0.0638 0.5465 0.0079, 0.0638 0.5465 0.0118, 0.0771 0.5522 0.0118, 0.0771 0.5522 0.0079, 0.0915 0.554 0.0118, 0.0915 0.554 0.0079, 0.0638 0.5623 0.0079, 0.0638 0.5623 0.0118, 0.0916 0.567 0.0079, 0.0916 0.567 0.0118, 0.0775 0.5661 0.0118, 0.0775 0.5661 0.0079, 0.1517 0.5043 0.0079, 0.1517 0.5043 0.0118, 0.1489 0.5166 0.0118, 0.1489 0.5166 0.0079, 0.142 0.5381 0.0118, 0.142 0.5381 0.0079, 0.136 0.5481 0.0118, 0.136 0.5481 0.0079, 0.13 0.554 0.0118, 0.13 0.554 0.0079, 0.1221 0.5588 0.0118, 0.1221 0.5588 0.0079, 0.1103 0.563 0.0118, 0.1103 0.563 0.0079, 0.0991 0.4467 0.0079, 0.0963 0.446 0.0079, 0.0963 0.446 0.0118, 0.1057 0.4485 0.0079, 0.1057 0.4485 0.0118, 0.128 0.4566 0.0118, 0.128 0.4566 0.0079, 0.1365 0.4624 0.0118, 0.1365 0.4624 0.0079, 0.1416 0.4682 0.0118, 0.1416 0.4682 0.0079, 0.1456 0.4757 0.0118, 0.1456 0.4757 0.0079, 0.1489 0.4868 0.0118, 0.1489 0.4868 0.0079, 0.0796 0.4477 0.0079, 0.0638 0.4536 0.0079, 0.0796 0.4477 0.0118, 0.0638 0.4536 0.0118, 0.0891 0.4467 0.0079, 0.0638 0.4665 0.0079, 0.0638 0.4665 0.0118, 0.0941 0.459 0.0079, 0.0941 0.459 0.0118, 0.0784 0.4607 0.0118, 0.0784 0.4607 0.0079, 0.1358 0.5053 0.0079, 0.1358 0.5053 0.0118, 0.1331 0.4909 0.0118, 0.1331 0.4909 0.0079, 0.1289 0.4785 0.0118, 0.1289 0.4785 0.0079, 0.1249 0.4722 0.0118, 0.1249 0.4722 0.0079, 0.1212 0.4686 0.0118, 0.1212 0.4686 0.0079, 0.1157 0.4651 0.0118, 0.1157 0.4651 0.0079, 0.1073 0.4621 0.0118, 0.1073 0.4621 0.0079, 0.0973 0.5524 0.0118, 0.0973 0.5524 0.0079, 0.1167 0.545 0.0118, 0.1167 0.545 0.0079, 0.1238 0.54 0.0118, 0.1238 0.54 0.0079, 0.128 0.5351 0.0118, 0.128 0.5351 0.0079, 0.1312 0.5289 0.0118, 0.1312 0.5289 0.0079, 0.1337 0.5197 0.0118, 0.1337 0.5197 0.0079, 0.2222 0.4475 0.0079, 0.2222 0.4475 0.0118, 0.2222 0.5656 0.0079, 0.2222 0.5656 0.0118, 0.1618 0.4475 0.0079, 0.1618 0.4475 0.0118, 0.1618 0.4604 0.0079, 0.1618 0.4604 0.0118, 0.2064 0.4604 0.0079, 0.2064 0.4604 0.0118, 0.2064 0.5656 0.0079, 0.2064 0.5656 0.0118
            ]
        }
        coordIndex [
            0,1,2,-1,2,1,3,-1,4,5,0,-1,0,5,1,-1,6,7,4,-1,4,7,5,-1,8,9,6,-1,6,9,7,-1,10,11,8,-1,8,11,9,-1,12,13,10,-1,10,13,11,-1,14,15,12,-1,12,15,13,-1,14,2,15,-1,15,2,3,-1,16,17,13,-1,15,3,1,-1,18,11,19,-1,19,11,13,-1,19,13,20,-1,20,13,17,-1,13,15,16,-1,16,15,1,-1,16,1,21,-1,21,1,5,-1,18,22,11,-1,11,22,21,-1,11,21,9,-1,9,21,5,-1,9,5,7,-1,16,23,17,-1,17,23,24,-1,21,25,16,-1,16,25,23,-1,22,26,21,-1,21,26,25,-1,26,22,18,-1,26,18,27,-1,27,18,19,-1,27,19,28,-1,28,19,20,-1,28,20,29,-1,29,20,17,-1,29,17,24,-1,30,31,32,-1,32,31,33,-1,34,35,30,-1,30,35,31,-1,36,37,38,-1,36,38,39,-1,39,38,40,-1,39,40,41,-1,41,40,42,-1,41,42,43,-1,43,42,44,-1,43,44,45,-1,45,44,46,-1,45,46,47,-1,47,46,48,-1,47,48,49,-1,49,48,35,-1,49,35,34,-1,50,51,52,-1,50,52,53,-1,53,52,54,-1,53,54,55,-1,55,54,56,-1,55,56,57,-1,57,56,58,-1,57,58,59,-1,59,58,60,-1,59,60,61,-1,61,60,62,-1,61,62,63,-1,63,62,37,-1,63,37,36,-1,50,32,51,-1,51,32,33,-1,64,65,37,-1,37,65,38,-1,38,65,66,-1,38,66,40,-1,66,67,40,-1,40,67,68,-1,40,68,42,-1,42,68,69,-1,42,69,44,-1,44,69,70,-1,44,70,46,-1,46,70,71,-1,37,62,64,-1,64,62,60,-1,64,60,72,-1,72,60,58,-1,72,58,73,-1,73,58,56,-1,73,56,74,-1,74,56,54,-1,74,54,75,-1,75,54,76,-1,76,54,52,-1,76,52,77,-1,77,52,51,-1,77,51,78,-1,78,51,33,-1,78,33,79,-1,79,33,31,-1,79,31,80,-1,80,31,35,-1,80,35,71,-1,71,35,48,-1,71,48,46,-1,81,65,64,-1,81,64,82,-1,82,64,72,-1,82,72,83,-1,83,72,73,-1,83,73,84,-1,84,73,74,-1,84,74,85,-1,85,74,75,-1,85,75,86,-1,86,75,76,-1,86,76,87,-1,87,76,77,-1,87,77,88,-1,78,89,77,-1,77,89,88,-1,79,90,78,-1,78,90,89,-1,80,91,79,-1,79,91,90,-1,91,80,71,-1,91,71,92,-1,92,71,70,-1,92,70,93,-1,93,70,69,-1,93,69,94,-1,94,69,68,-1,94,68,95,-1,95,68,67,-1,95,67,96,-1,96,67,66,-1,96,66,97,-1,97,66,65,-1,97,65,81,-1,98,99,100,-1,100,99,101,-1,102,103,98,-1,98,103,99,-1,104,105,102,-1,102,105,103,-1,106,107,104,-1,104,107,105,-1,108,109,106,-1,106,109,107,-1,110,111,108,-1,108,111,109,-1,112,113,110,-1,110,113,111,-1,114,115,112,-1,112,115,113,-1,116,117,114,-1,114,117,115,-1,118,119,116,-1,116,119,117,-1,120,121,118,-1,118,121,119,-1,120,100,121,-1,121,100,101,-1,107,109,105,-1,105,109,111,-1,105,111,103,-1,115,117,113,-1,113,117,119,-1,113,119,121,-1,101,99,121,-1,121,99,103,-1,121,103,113,-1,113,103,111,-1,122,123,124,-1,122,124,125,-1,125,124,126,-1,125,126,127,-1,128,129,122,-1,122,129,123,-1,130,131,132,-1,130,132,133,-1,133,132,129,-1,133,129,128,-1,134,135,136,-1,134,136,137,-1,137,136,138,-1,137,138,139,-1,139,138,140,-1,139,140,141,-1,141,140,142,-1,141,142,143,-1,143,142,144,-1,143,144,145,-1,145,144,146,-1,145,146,147,-1,147,146,131,-1,147,131,130,-1,148,149,150,-1,148,150,151,-1,150,152,151,-1,151,152,153,-1,151,153,154,-1,154,153,155,-1,154,155,156,-1,156,155,157,-1,156,157,158,-1,158,157,159,-1,158,159,160,-1,160,159,161,-1,160,161,162,-1,162,161,135,-1,162,135,134,-1,163,164,165,-1,165,164,166,-1,163,165,167,-1,167,165,150,-1,167,150,149,-1,168,169,164,-1,164,169,166,-1,170,171,172,-1,170,172,173,-1,173,172,169,-1,173,169,168,-1,174,175,176,-1,174,176,177,-1,177,176,178,-1,177,178,179,-1,179,178,180,-1,179,180,181,-1,181,180,182,-1,181,182,183,-1,183,182,184,-1,183,184,185,-1,185,184,186,-1,185,186,187,-1,187,186,171,-1,187,171,170,-1,127,126,188,-1,127,188,189,-1,189,188,190,-1,189,190,191,-1,191,190,192,-1,191,192,193,-1,193,192,194,-1,193,194,195,-1,195,194,196,-1,195,196,197,-1,197,196,198,-1,197,198,199,-1,199,198,175,-1,199,175,174,-1,123,129,124,-1,124,129,132,-1,124,132,126,-1,126,132,131,-1,126,131,188,-1,188,131,146,-1,188,146,190,-1,176,159,178,-1,178,159,157,-1,178,157,180,-1,180,157,155,-1,180,155,182,-1,182,155,153,-1,146,144,190,-1,190,144,142,-1,190,142,192,-1,192,142,140,-1,192,140,194,-1,194,140,138,-1,194,138,196,-1,166,169,165,-1,165,169,172,-1,165,172,150,-1,150,172,171,-1,150,171,152,-1,152,171,186,-1,152,186,153,-1,153,186,184,-1,153,184,182,-1,196,138,198,-1,198,138,136,-1,198,136,175,-1,175,136,135,-1,175,135,176,-1,176,135,161,-1,176,161,159,-1,200,201,202,-1,202,201,203,-1,204,205,200,-1,200,205,201,-1,206,207,204,-1,204,207,205,-1,208,209,206,-1,206,209,207,-1,210,211,208,-1,208,211,209,-1,210,202,211,-1,211,202,203,-1,211,203,209,-1,209,203,201,-1,209,201,207,-1,207,201,205,-1,
        ]
    }
}
Shape{
    appearance Appearance {
        material  Material 	{
            diffuseColor 0.25098039215686274 0.25098039215686274 0.25098039215686274
            specularColor 0.12549019607843137 0.12549019607843137 0.12549019607843137
            ambientIntensity 0.251
            transparency 0.0
            shininess 0.5
        }
    }
    geometry IndexedFaceSet {
        ccw TRUE
        solid FALSE
        coord DEF co Coordinate {
            point [
                -0.1819 0.4935 0.0079, -0.2214 0.4935 0.0079, -0.1995 0.5429 0.0079, -0.2036 0.5429 0.0079, -0.2007 0.547 0.0079, -0.2026 0.547 0.0079, -0.2014 0.5512 0.0079, -0.0789 0.5526 0.0079, -0.0615 0.5526 0.0079, -0.1227 0.4935 0.0079, -0.1201 0.4844 0.0079, -0.1015 0.548 0.0079, -0.0927 0.5505 0.0079, -0.1209 0.5236 0.0079, -0.1249 0.5077 0.0079, -0.0615 0.4604 0.0079, -0.0783 0.4604 0.0079, -0.0948 0.4644 0.0079, -0.107 0.4693 0.0079, -0.1132 0.4737 0.0079, -0.117 0.4782 0.0079, -0.1075 0.545 0.0079, -0.1161 0.5354 0.0079, -0.1118 0.5414 0.0079
            ]
        }
        coordIndex [
            0,1,2,-1,2,1,3,-1,2,3,4,-1,4,3,5,-1,4,5,6,-1,7,8,9,-1,9,8,10,-1,11,12,13,-1,7,9,12,-1,12,9,14,-1,12,14,13,-1,15,16,8,-1,8,16,17,-1,8,17,18,-1,18,19,8,-1,8,19,20,-1,8,20,10,-1,11,13,21,-1,21,13,22,-1,21,22,23,-1,
        ]
    }
}